<?xml version="1.0" encoding="UTF-8" standalone="no"?>
<!-- Created with Inkscape (http://www.inkscape.org/) -->

<svg
   width="41.054844mm"
   height="15.460925mm"
   viewBox="0 0 41.054844 15.460925"
   version="1.1"
   id="svg5"
   inkscape:version="1.1.2 (0a00cf5339, 2022-02-04, custom)"
   sodipodi:docname="home text.svg"
   xmlns:inkscape="http://www.inkscape.org/namespaces/inkscape"
   xmlns:sodipodi="http://sodipodi.sourceforge.net/DTD/sodipodi-0.dtd"
   xmlns="http://www.w3.org/2000/svg"
   xmlns:svg="http://www.w3.org/2000/svg">
  <sodipodi:namedview
     id="namedview7"
     pagecolor="#505050"
     bordercolor="#eeeeee"
     borderopacity="1"
     inkscape:pageshadow="0"
     inkscape:pageopacity="0"
     inkscape:pagecheckerboard="0"
     inkscape:document-units="mm"
     showgrid="true"
     inkscape:zoom="1.2222732"
     inkscape:cx="21.680914"
     inkscape:cy="148.90288"
     inkscape:window-width="2560"
     inkscape:window-height="1377"
     inkscape:window-x="-8"
     inkscape:window-y="-8"
     inkscape:window-maximized="1"
     inkscape:current-layer="layer1">
    <inkscape:grid
       type="xygrid"
       id="grid824"
       originx="-99.045124"
       originy="-94.885277" />
  </sodipodi:namedview>
  <defs
     id="defs2" />
  <g
     inkscape:label="Layer 1"
     inkscape:groupmode="layer"
     id="layer1"
     transform="translate(-99.04512,-94.88528)">
    <g
       aria-label="   Fortune"
       id="text68529"
       style="font-size:10.5833px;line-height:1.25;font-family:serif;-inkscape-font-specification:serif;stroke-width:0.264583">
      <path
         d="m 101.18309,97.056898 0.70849,2.976062 2.4834,-0.591199 0.11968,0.502714 -2.48341,0.591205 0.5206,2.1868 q 0.0574,0.2413 0.1575,0.37153 0.10509,0.12904 0.23483,0.18314 0.13358,0.0479 0.2954,0.0359 0.16183,-0.012 0.33275,-0.0527 l 0.34185,-0.0814 0.10292,0.43234 -3.20229,0.76234 -0.10292,-0.43234 0.13071,-0.0311 q 0.17092,-0.0407 0.31694,-0.0967 0.14986,-0.0622 0.24873,-0.16014 0.0989,-0.0979 0.13191,-0.2492 0.0369,-0.15751 -0.017,-0.38374 l -1.21352,-5.097514 q -0.0539,-0.226221 -0.15655,-0.345199 -0.0989,-0.125202 -0.232438,-0.173084 -0.133576,-0.04788 -0.294204,-0.03089 -0.156798,0.01077 -0.327721,0.05146 l -0.130705,0.03111 -0.102922,-0.432333 5.18801,-1.235063 0.47871,1.787748 -0.53288,0.126857 -0.15558,-0.43042 q -0.062,-0.171163 -0.15823,-0.307616 -0.0974,-0.14148 -0.23938,-0.224552 -0.13812,-0.0893 -0.3246,-0.113958 -0.18768,-0.02969 -0.42898,0.02776 z"
         id="path83850" />
      <path
         d="m 111.09915,99.465615 q 0.22425,1.476515 -0.29475,2.292325 -0.51389,0.81504 -1.71963,0.99817 -0.5671,0.0861 -1.04385,-0.0244 -0.47676,-0.11053 -0.84861,-0.42517 -0.36675,-0.3154 -0.61837,-0.83646 -0.24729,-0.52695 -0.35903,-1.26265 -0.2227,-1.466295 0.28686,-2.275451 0.51467,-0.809931 1.73062,-0.994609 0.5671,-0.08613 1.04386,0.0244 0.47597,0.105423 0.84272,0.420831 0.37107,0.309524 0.61759,0.83136 0.25085,0.515951 0.36259,1.251654 z m -3.87265,0.588175 q 0.0885,0.58243 0.2326,1.01528 0.14414,0.43284 0.35852,0.70867 0.21872,0.26994 0.51277,0.38209 0.29917,0.11137 0.69257,0.0516 0.39339,-0.0597 0.64089,-0.25415 0.2475,-0.19439 0.3711,-0.51632 0.12281,-0.32704 0.12683,-0.78239 0.009,-0.45613 -0.0793,-1.03856 -0.0885,-0.58243 -0.23183,-1.010168 -0.14336,-0.427738 -0.35619,-0.693346 -0.21361,-0.270718 -0.512,-0.376978 -0.29328,-0.107037 -0.68667,-0.04729 -0.3934,0.05975 -0.64168,0.249036 -0.24827,0.189288 -0.37187,0.511219 -0.12436,0.316821 -0.13427,0.767838 -0.01,0.451016 0.0786,1.033449 z"
         id="path83852" />
      <path
         d="m 115.50591,101.97157 -3.04631,0.21748 -0.0316,-0.44329 0.0309,-0.002 q 0.18041,-0.0129 0.3332,-0.0497 0.15795,-0.0372 0.26583,-0.12259 0.11267,-0.0909 0.169,-0.2452 0.0615,-0.15463 0.0438,-0.40205 l -0.23515,-3.293731 q -0.0165,-0.231953 -0.0986,-0.365973 -0.0773,-0.139542 -0.20139,-0.208396 -0.12407,-0.06885 -0.2857,-0.08322 -0.15648,-0.01473 -0.33173,-0.0022 l -0.0309,0.0022 -0.0317,-0.443288 1.62367,-0.115917 0.27573,1.032013 0.0516,-0.0037 q 0.0862,-0.244468 0.17969,-0.458376 0.0932,-0.219062 0.23675,-0.384737 0.14838,-0.171198 0.37408,-0.275384 0.22533,-0.109341 0.57583,-0.134364 0.57731,-0.04122 0.87,0.139939 0.29785,0.180786 0.32398,0.546756 0.0118,0.164944 -0.035,0.308164 -0.0416,0.142852 -0.1528,0.254406 -0.11156,0.106399 -0.29308,0.176346 -0.18188,0.06479 -0.44992,0.08393 -0.0313,-0.438133 -0.1686,-0.620018 -0.13769,-0.18704 -0.44696,-0.16496 -0.19587,0.01398 -0.34241,0.138422 -0.14691,0.119285 -0.25221,0.313311 -0.10052,0.188503 -0.16607,0.431498 -0.0604,0.242628 -0.0939,0.498878 -0.0287,0.250729 -0.0317,0.499617 -0.003,0.248888 0.0114,0.449914 l 0.1185,1.65975 q 0.0166,0.23195 0.0939,0.37149 0.0821,0.13402 0.2058,0.19772 0.12371,0.0637 0.28018,0.0784 0.16127,0.009 0.33652,-0.003 l 0.29381,-0.021 z"
         id="path83854" />
      <path
         d="m 119.88727,101.39948 q 0.19119,-0.002 0.3512,-0.0238 0.16001,-0.0221 0.32509,-0.0545 l 0.004,0.46507 q -0.0669,0.0316 -0.17514,0.0635 -0.10824,0.032 -0.23725,0.0538 -0.12379,0.0269 -0.26322,0.0385 -0.13938,0.0167 -0.2634,0.0178 -0.40306,0.004 -0.69321,-0.0817 -0.2901,-0.0801 -0.47782,-0.26968 -0.18771,-0.18956 -0.2835,-0.50395 -0.0906,-0.31444 -0.0946,-0.76917 l -0.0312,-3.534522 -0.80612,0.0071 -0.004,-0.423729 q 0.19119,-0.0017 0.41788,-0.0812 0.23185,-0.07956 0.40595,-0.261969 0.17912,-0.197956 0.28527,-0.467619 0.11127,-0.274876 0.19035,-0.683831 l 0.48574,-0.0043 0.0115,1.302192 1.38487,-0.01221 0.005,0.604589 -1.38487,0.01221 0.0314,3.565529 q 0.005,0.54258 0.22405,0.79387 0.22443,0.25124 0.59132,0.24801 z"
         id="path83856" />
      <path
         d="m 126.45286,101.00039 q -0.0149,0.23207 0.0429,0.38076 0.0633,0.14387 0.17726,0.22367 0.11399,0.0798 0.26705,0.11549 0.15854,0.0309 0.33388,0.0421 l 0.0309,0.002 -0.0284,0.44351 -1.67604,-0.10739 -0.0844,-0.865 -0.0516,-0.003 q -0.17904,0.28886 -0.3869,0.46196 -0.20271,0.17343 -0.42624,0.26785 -0.22321,0.0893 -0.46274,0.11016 -0.23987,0.026 -0.49773,0.01 -0.41772,-0.0268 -0.73501,-0.16619 -0.31729,-0.13943 -0.52286,-0.40634 -0.20556,-0.2669 -0.29905,-0.66644 -0.0884,-0.39921 -0.0537,-0.940696 l 0.16225,-2.532112 q 0.0149,-0.232067 -0.0484,-0.375934 -0.0578,-0.148693 -0.17144,-0.233649 -0.11366,-0.08496 -0.27187,-0.120985 -0.15306,-0.0357 -0.3284,-0.04693 l -0.0309,-0.002 0.0284,-0.443506 1.89264,0.121274 -0.23362,3.646035 q -0.0221,0.345523 0.0122,0.616993 0.0396,0.2718 0.15142,0.46539 0.11703,0.19391 0.32219,0.30545 0.21065,0.1067 0.53039,0.12719 0.35068,0.0225 0.60615,-0.0854 0.26062,-0.10757 0.4347,-0.31908 0.17956,-0.21634 0.27708,-0.52596 0.0975,-0.30963 0.12196,-0.691252 l 0.13945,-2.176275 q 0.0159,-0.247539 -0.0468,-0.401719 -0.0571,-0.159008 -0.17079,-0.243964 -0.10816,-0.08978 -0.26638,-0.125811 -0.15306,-0.0357 -0.33356,-0.04726 l -0.0309,-0.002 0.0284,-0.443507 1.88748,0.120944 z"
         id="path83858" />
      <path
         d="m 130.69563,102.26646 -0.0675,0.43926 -2.81436,-0.43227 0.0675,-0.43926 0.0868,0.0133 q 0.17877,0.0274 0.33592,0.0254 0.16227,-0.001 0.2864,-0.0606 0.13003,-0.0637 0.21919,-0.20161 0.0943,-0.13714 0.13191,-0.38231 l 0.50131,-3.26384 q 0.0353,-0.229848 -0.015,-0.378739 -0.0444,-0.153216 -0.15015,-0.247875 -0.10571,-0.09466 -0.26012,-0.144519 -0.14931,-0.04907 -0.32298,-0.07575 l -0.0306,-0.0047 0.0675,-0.439265 1.69065,0.259676 0.008,0.869065 0.0511,0.0078 q 0.20816,-0.266036 0.41518,-0.422456 0.2129,-0.160743 0.4278,-0.232302 0.22078,-0.07588 0.45101,-0.07712 0.23612,-0.0056 0.4864,0.03288 0.41373,0.06355 0.71669,0.235556 0.30885,0.167687 0.49515,0.452485 0.19219,0.280474 0.25004,0.686705 0.063,0.407016 -0.0194,0.943328 l -0.37971,2.472141 q -0.0376,0.24517 -0.004,0.40192 0.0385,0.15754 0.13325,0.25574 0.0955,0.0931 0.2397,0.14138 0.1442,0.0483 0.31786,0.075 l 0.0358,0.005 -0.0675,0.43927 -1.82346,-0.28008 0.55465,-3.611156 q 0.0526,-0.342218 0.0321,-0.617234 -0.0205,-0.275016 -0.13017,-0.480076 -0.10455,-0.204276 -0.31006,-0.32995 -0.20473,-0.130781 -0.52141,-0.179421 -0.35754,-0.05492 -0.62389,0.04534 -0.26125,0.101036 -0.44546,0.313241 -0.18421,0.212204 -0.29769,0.508469 -0.10836,0.29705 -0.16014,0.63416 l -0.33891,2.206537 q -0.0353,0.22985 0.009,0.38307 0.0503,0.14889 0.15682,0.23844 0.1065,0.0896 0.25581,0.13863 0.1552,0.0447 0.32886,0.0714 z"
         id="path83860" />
      <path
         d="m 138.26639,98.866076 q -0.57423,-0.13156 -0.99386,0.265342 -0.41343,0.393018 -0.67426,1.276932 l 2.37249,0.54355 q 0.0935,-0.40801 0.11035,-0.75934 0.0169,-0.351338 -0.0587,-0.623124 -0.0756,-0.271787 -0.26216,-0.452375 -0.18156,-0.179435 -0.49386,-0.250985 z m -1.06042,5.207014 q -0.55912,-0.1281 -0.96472,-0.41719 -0.39942,-0.29296 -0.62359,-0.72603 -0.22417,-0.43307 -0.27038,-0.99501 -0.04,-0.56583 0.11347,-1.23577 0.33121,-1.445649 1.09293,-2.039855 0.76171,-0.594206 1.85981,-0.342626 0.49867,0.114249 0.86083,0.361569 0.36215,0.247319 0.56765,0.623093 0.20664,0.370736 0.24655,0.867619 0.0461,0.493 -0.0935,1.10249 l -0.10847,0.47349 -3.43532,-0.78705 q -0.11918,0.56646 -0.11191,0.99755 0.0135,0.4272 0.14486,0.73299 0.13643,0.30693 0.38966,0.49749 0.25438,0.18552 0.62209,0.26976 0.26697,0.0612 0.50749,0.0527 0.24555,-0.007 0.45501,-0.0654 0.20945,-0.058 0.37934,-0.15166 0.17608,-0.0975 0.29907,-0.21777 0.0636,0.0464 0.10211,0.15594 0.0436,0.1107 0.0136,0.24167 -0.0358,0.15615 -0.18814,0.3121 -0.1512,0.15091 -0.4125,0.25009 -0.26129,0.0992 -0.62689,0.12145 -0.36057,0.0234 -0.81895,-0.0816 z"
         id="path83862" />
    </g>
    <text
       xml:space="preserve"
       style="font-size:6.35px;line-height:1.25;font-family:serif;-inkscape-font-specification:serif;stroke-width:0.264583"
       id="text71635"
       y="108.82072"
       x="104.12637"><tspan
         sodipodi:role="line"
         id="tspan71633"
         style="font-size:6.35px;stroke-width:0.264583"
         x="104.12637"
         y="108.82072">of the Day</tspan></text>
  </g>
</svg>
