<?xml version="1.0" encoding="UTF-8" standalone="no"?>
<svg
   width="95.769287"
   height="81.260269"
   viewBox="0 0 399.0387 338.58445"
   version="1.1"
   id="svg856"
   sodipodi:docname="Cat_edited.svg"
   inkscape:version="1.1.2 (0a00cf5339, 2022-02-04, custom)"
   xmlns:inkscape="http://www.inkscape.org/namespaces/inkscape"
   xmlns:sodipodi="http://sodipodi.sourceforge.net/DTD/sodipodi-0.dtd"
   xmlns="http://www.w3.org/2000/svg"
   xmlns:svg="http://www.w3.org/2000/svg">
  <defs
     id="defs860" />
  <sodipodi:namedview
     id="namedview858"
     pagecolor="#505050"
     bordercolor="#eeeeee"
     borderopacity="1"
     inkscape:pageshadow="0"
     inkscape:pageopacity="0"
     inkscape:pagecheckerboard="0"
     showgrid="false"
     inkscape:zoom="8.2916667"
     inkscape:cx="59.155779"
     inkscape:cy="32.321608"
     inkscape:window-width="2560"
     inkscape:window-height="1377"
     inkscape:window-x="-8"
     inkscape:window-y="-8"
     inkscape:window-maximized="1"
     inkscape:current-layer="svg856" />
  <g
     stroke-linecap="round"
     id="Layer_1_2"
     transform="translate(-153.14515,-85.111945)">
    <path
       d="m 255.28,149.18 c 0,0 -3.34,-0.9 -3.34,-0.9"
       fill="none"
       stroke="#000000"
       stroke-width="9"
       stroke-opacity="1"
       stroke-linejoin="round"
       id="path843" />
    <path
       d="m 185.37,208.86 c -4.29,6.92 -9.02,15.86 -12.49,23.83 -3.11,7.32 -7.15,19.48 -9.15,25.69 -2.27,7.54 -5.5,22.83 -5.96,27.43 -0.49,5.11 0.97,17.84 3.21,25.3 2.08,6.83 7.08,17.99 10.94,24.44 3.21,5.24 10.27,14.54 15.01,19.63 4.72,5.05 16.51,15.29 22.16,19.32 6.67,4.58 22.32,15.17 25.39,16.99 2.74,1.62 15.11,8.17 21.64,10.99 6.06,2.47 18.66,7.06 25.1,8.98 7.56,2.16 15.12,3.77 25.35,4.97 7.99,0.84 24.5,2.46 31.56,2.73 12.12,0.35 43.3,-2.1 55.73,-3.99 7.76,-1.3 20.68,-3.58 27.86,-5.44 6.05,-1.7 17.87,-5.28 24.14,-7.93 6.8,-2.99 24.07,-10.7 27.4,-12.42 5.07,-2.65 12.82,-8.39 21.76,-15.66 8.74,-7.24 13.46,-11.74 18.6,-18.03 3.77,-4.69 9.84,-14.13 13.02,-20.3 3.16,-6.26 8.58,-19.25 10.35,-25.01 2.26,-7.86 7.15,-25.53 7.98,-29.37 1.51,-7.08 2.57,-16.65 2.71,-23 0.09,-6.74 -1.68,-21.76 -3.46,-29.04 -1.94,-7.83 -6.54,-19.15 -10.02,-25.45 -2.68,-4.64 -10.37,-14.01 -14.04,-18.43"
       fill="none"
       stroke="#000000"
       stroke-width="9"
       stroke-opacity="1"
       stroke-linejoin="round"
       id="path845" />
    <path
       d="m 420.79,135.52 c -7.43,-0.82 -24.92,-2.51 -29.06,-2.64 -4.85,-0.14 -24.01,0.13 -31.9,0.3 -8.21,0.28 -79.72,7.93 -87.21,8.83 -8.28,1.09 -14.14,3.01 -19.22,5.98"
       fill="none"
       stroke="#000000"
       stroke-width="9"
       stroke-opacity="1"
       stroke-linejoin="round"
       id="path847" />
    <path
       d="m 254.45,144.96 c -2.25,2.02 -2.75,2.57 -2.77,2.5 -0.06,-0.19 -12.13,-17.31 -16.33,-23.5 -3.74,-5.73 -13.05,-20.98 -15.74,-24.84 -5.99,-8.39 -7.75,-9.54 -8.21,-9.49 -1.52,7.23 -12.08,44.13 -16.64,59.99 -2.42,8.93 -4.53,20.96 -5.3,27 -0.83,6.7 -1.68,28.08 -1.85,29.14 0,0 0.93,-3.28 0.93,-3.28"
       fill="none"
       stroke="#000000"
       stroke-width="9"
       stroke-opacity="1"
       stroke-linejoin="round"
       id="path849" />
    <path
       d="m 473.35,127.36 c 5,-4.28 17.24,-14.76 24.49,-20.96 9.58,-8.07 18.09,-14.78 22.13,-16.59 0.99,4.55 2.45,18.83 2.97,29.86 0.2,7.26 0.48,20.58 -0.22,28.13 -2.43,23.49 -2.76,32.14 -3.12,34.36 0.33,-0.6 0.55,-1.01 0.68,-1.24 0.13,-0.22 0.34,-0.58 0.63,-1.06"
       fill="none"
       stroke="#000000"
       stroke-width="9"
       stroke-opacity="1"
       stroke-linejoin="round"
       id="path851" />
    <path
       d="m 470.55,172.56 c -0.41,0.02 -3.02,-0.03 -3.6,0.11 -1.68,0.42 -5.83,4.88 -7.56,8.2 -1.73,3.36 -2.38,6.3 -2.58,9.14 -0.07,1.35 0.33,4.28 0.92,5.9 0.67,1.71 3.25,4.67 4.83,5.5 2.91,1.45 8.09,1.24 9.78,0.71 1.93,-0.63 5.27,-2.7 7.05,-4.29 2.02,-1.88 5.26,-7.36 5.5,-10.69 0.13,-2.65 -1.27,-7.7 -2.99,-9.72 -1.77,-1.98 -5.83,-4.3 -7.79,-4.63 -3.62,-0.57 -7.59,1.14 -7.55,1.37 0.07,0.64 2.94,-2.6 4.02,-5.3 1.17,-3.07 2.63,-9.66 2.75,-13.71 0.12,-5.07 -2.88,-17.77 -5.38,-23.53 -1.22,-2.77 -4.39,-8.49 -5.56,-10.05 -2.63,-3.46 -7.62,-7.37 -10.84,-8.54 -3.42,-1.16 -9.41,-0.65 -13.17,0.83 -1.74,0.71 -5.63,3.89 -6.91,5.29 -1.73,1.92 -5.09,7.2 -6.35,10.05 -1.31,3.05 -2.77,9.41 -2.82,12.63 -0.02,3.61 1.42,9.49 3.09,13.16 1.26,2.68 4.84,6.8 8.33,10.01 4.82,4.37 17.19,11.78 19.93,12.21 1.13,0.17 3.38,0.16 3.32,0.15 -2.07,1.14 -9.27,7.27 -11.07,9.04 -2.29,2.27 -5.99,7.36 -7.68,10.26 -2.02,3.51 -4.38,8.82 -5.48,12.33 -0.94,3.05 -2.07,9.38 -2.25,11.88 -0.32,5.01 1.16,11.05 3.24,14.5 0.99,1.57 4.61,4.69 5.85,5.45 1.58,0.94 5.94,2.31 8.14,2.52 2.44,0.22 7.34,-0.47 9.5,-1.34 1.53,-0.64 5.99,-3.35 7.64,-5.05 1.56,-1.63 5.81,-7.18 7.09,-9.75 1.07,-2.2 3.23,-8.3 3.43,-11.47 0.08,-1.38 -0.34,-8.9 -0.84,-12.64 0.01,1.38 2.66,7.41 4.04,9.3 1.76,2.39 7.71,7.62 9.29,8.76 2.43,1.71 7.85,3.8 10.13,4.21 2.68,0.45 8.28,-0.11 11.11,-1.07 2.69,-0.94 7.18,-3.71 9.31,-5.64 1.96,-1.81 4.77,-5.5 5.94,-7.77 1.15,-2.26 2.52,-6.71 2.68,-8.56 0.16,-2.26 -0.13,-5.55 -0.75,-7.46 -1.18,-3.43 -6.05,-9.15 -9.02,-11.39 -2.63,-1.94 -9.41,-4.64 -13.35,-5.64 -3.66,-0.89 -9.06,-1.5 -10.93,-1.3 -1.92,0.22 -3.34,0.81 -4.07,1.55 0.05,0.7 0,0.88 0.02,0.87 0.25,-0.18 6.92,-4.35 10.08,-7.01 3.36,-2.87 8.63,-8.08 10.79,-10.79 1.36,-1.73 5.58,-8.04 6.56,-10.13 0.57,-1.24 2.25,-7.2 2.28,-9.63 0.01,-2.67 -1.2,-8.25 -2.38,-10.79 -1.18,-2.48 -4.8,-7.19 -6.85,-9.14 -2.1,-1.95 -6.59,-4.49 -9.1,-5.06 -2.66,-0.57 -8.73,0.07 -12.12,1.19 -6.49,2.23 -13.48,7.87 -15.97,10.74 1.03,-0.35 1.77,-0.63 2.23,-0.83 0.47,-0.21 1.29,-0.63 2.48,-1.27"
       fill="none"
       stroke="#000000"
       stroke-width="9"
       stroke-opacity="1"
       stroke-linejoin="round"
       id="path853" />
  </g>
</svg>
