<?xml version="1.0" encoding="UTF-8" standalone="no"?>
<!DOCTYPE svg PUBLIC "-//W3C//DTD SVG 1.1//EN" "http://www.w3.org/Graphics/SVG/1.1/DTD/svg11.dtd">
<svg width="192.00" height="144.00" viewBox="0.00 0.00 800.00 600.00" xmlns="http://www.w3.org/2000/svg" xmlns:xlink="http://www.w3.org/1999/xlink">
<g stroke-linecap="round" id="L">
<path d="M394.58,276.72 C392.67,282.65 387.65,298.30 384.25,305.12 C382.35,308.89 378.07,315.42 375.80,318.27 C371.53,323.58 359.48,334.33 353.74,338.02 C347.42,342.04 333.82,348.15 326.54,350.29 C320.20,352.11 304.47,353.72 296.93,353.44 C288.65,353.10 274.84,349.99 267.90,347.38 C260.97,344.75 248.55,337.95 242.12,332.73 C236.27,327.95 225.52,316.32 222.00,310.77 C217.96,304.35 211.86,290.85 209.72,283.57 C207.89,277.26 206.27,261.50 206.56,253.96 C206.89,245.68 210.01,231.86 212.62,224.93 C215.25,218.00 222.05,205.58 227.27,199.15 C232.05,193.30 243.68,182.55 249.22,179.03 C255.64,174.99 269.15,168.89 276.43,166.74 C282.74,164.91 298.49,163.30 306.04,163.58 C314.32,163.92 328.13,167.04 335.07,169.64 C342.02,172.29 354.46,179.10 360.85,184.21 C366.96,189.13 377.13,200.20 380.99,206.30 C385.03,212.73 391.26,226.64 393.34,233.69 C395.69,241.88 395.99,251.10 395.99,263.47" fill="none" stroke="rgb(0, 0, 0)" stroke-width="7.00" stroke-opacity="1.00" stroke-linejoin="round"/>
<path d="M290.03,140.56 C290.13,140.75 275.15,145.05 268.01,148.48 C257.23,153.72 244.09,160.75 241.23,163.56 C239.72,165.06 227.38,179.45 224.20,184.00 C219.61,190.59 212.95,202.33 209.91,209.63 C207.07,216.51 203.47,229.42 202.48,236.02 C201.33,243.97 202.44,258.13 203.42,263.46 C203.82,265.59 205.86,272.53 206.80,274.78" fill="none" stroke="rgb(0, 0, 0)" stroke-width="10.00" stroke-opacity="1.00" stroke-linejoin="round"/>
<path d="M398.58,248.94 C400.45,240.10 400.96,225.57 400.39,218.88 C399.78,212.15 395.75,196.29 392.84,189.59 C391.37,186.26 388.11,180.54 386.07,177.79 C382.64,173.22 371.81,163.66 366.26,160.15 C360.93,156.81 347.62,150.10 342.04,147.91 C337.46,146.13 318.32,140.48 315.48,139.85 C311.11,138.88 304.08,138.25 301.22,138.22 C298.37,138.20 294.30,139.00 292.50,139.96" fill="none" stroke="rgb(0, 0, 0)" stroke-width="10.00" stroke-opacity="1.00" stroke-linejoin="round"/>
<path d="M233.10,185.05 C229.28,188.96 220.22,200.79 215.27,207.33 C211.33,212.52 211.13,213.10 211.26,213.78 C213.30,211.99 220.42,199.61 226.20,191.95 C231.94,184.50 240.68,173.95 246.38,168.35 C254.42,160.51 256.54,159.30 257.51,158.98 C255.60,161.25 243.13,174.40 238.75,179.30 C229.52,190.01 212.25,211.03 209.34,214.91 C210.34,213.74 220.44,198.82 225.09,192.97 C230.36,186.47 244.14,172.37 245.85,170.86 C247.59,169.32 261.24,159.12 266.65,156.18 C268.92,154.95 270.18,154.52 271.54,154.42 C271.54,154.42 235.03,187.33 235.03,187.33 C240.47,182.26 254.02,169.75 257.17,167.09 C267.96,158.01 282.32,149.55 289.86,145.98 C289.86,145.98 254.39,169.01 254.39,169.01 C258.11,166.13 268.49,159.21 276.88,154.13 C291.33,145.67 304.83,140.43 307.66,139.63 C305.98,141.66 303.09,143.87 298.64,146.59 C284.73,154.70 269.37,162.22 268.35,162.72 C268.35,162.72 318.05,139.47 318.05,139.47 C317.88,139.64 294.34,147.25 292.83,147.84 C290.78,148.65 281.90,152.78 280.54,153.50 C277.23,155.27 276.07,156.52 274.96,157.96 C276.45,158.41 277.67,158.54 279.13,158.17 C281.54,157.55 315.06,145.33 318.51,144.76 C318.18,145.67 317.63,146.24 316.00,147.13 C311.07,149.82 290.56,157.47 286.81,158.75 C286.97,158.84 306.40,154.25 313.14,153.10 C332.73,149.81 338.01,150.60 338.52,151.00 C332.64,152.05 315.22,151.90 309.19,152.13 C305.48,152.31 301.35,152.96 297.73,154.58 C297.73,154.58 298.34,156.22 298.34,156.22 C301.87,157.40 318.54,158.44 326.98,158.92 C338.90,159.69 343.41,160.36 347.26,161.25 C345.21,160.45 336.69,156.05 335.44,155.44 C331.67,153.60 325.55,151.66 322.40,151.21 C319.03,150.76 311.18,151.10 307.51,151.79 C299.63,153.33 296.22,156.02 294.73,157.53 C296.06,158.36 296.97,158.58 299.06,158.44 C323.07,157.07 331.36,156.89 334.35,157.32 C333.91,158.26 328.74,158.91 324.67,159.21 C316.23,159.80 296.81,161.27 292.60,161.80 C274.71,164.18 257.73,169.15 257.73,169.04 C265.85,165.70 277.13,162.46 285.80,161.19 C289.14,160.70 303.34,159.29 313.98,158.78 C322.59,158.50 340.01,159.74 342.89,160.69 C349.03,162.79 353.77,166.45 353.95,166.58 C351.84,164.92 347.40,161.45 344.29,159.27 C341.13,157.08 338.96,156.55 337.66,156.61 C337.66,156.61 336.94,157.88 336.94,157.88 C337.90,160.08 338.70,161.37 339.96,162.54 C342.60,164.95 346.18,167.47 350.29,169.74 C359.80,174.91 362.06,175.36 363.77,175.63 C359.53,167.58 341.26,159.51 339.67,159.12 C337.51,158.59 335.72,158.78 334.51,159.52 C335.19,161.27 335.93,162.32 337.36,163.27 C349.91,171.48 366.12,174.31 368.08,174.43 C367.85,173.62 348.89,161.86 342.82,159.66 C339.33,158.41 335.99,157.56 332.60,156.98 C331.00,156.71 329.74,156.90 327.78,157.59 C328.42,159.46 329.23,160.61 330.93,161.68 C335.69,164.68 345.49,168.54 357.27,172.79 C361.33,174.18 368.16,176.44 370.93,177.32 C369.53,176.73 356.43,169.82 350.57,168.05 C344.37,166.21 334.05,164.55 325.35,164.38 C322.15,164.34 319.15,164.92 318.29,165.22 C319.37,166.31 325.42,167.08 328.89,167.54 C336.37,168.49 351.15,170.47 357.21,172.28 C360.49,173.29 366.82,175.37 369.62,176.77 C372.40,178.18 374.19,180.40 374.13,180.99 C373.49,181.46 370.36,180.01 366.83,176.97 C365.04,175.41 351.97,162.41 350.26,159.84 C351.36,158.30 374.32,179.12 381.73,186.94 C380.82,186.31 371.37,177.35 361.26,168.93 C355.46,164.20 348.54,158.56 347.42,157.66 C353.27,162.21 360.64,169.73 366.75,176.60 C374.93,186.17 384.69,200.22 385.46,201.33 C385.46,201.33 369.01,172.04 369.01,172.04 C369.01,172.04 390.99,210.36 390.99,210.36 C388.22,207.79 379.67,195.05 375.55,188.79 C370.96,181.72 364.93,172.42 362.81,169.67 C364.78,174.29 368.89,180.03 375.27,188.21 C381.82,196.40 386.21,201.41 391.00,206.59 C391.00,206.59 355.54,173.31 355.54,173.31 C355.54,173.31 354.73,174.19 354.73,174.19 C357.85,179.79 367.00,191.28 371.91,196.46 C376.61,201.39 384.35,207.26 388.06,208.58 C387.57,206.20 387.14,205.09 385.96,203.43 C371.17,182.00 368.18,176.29 367.58,173.63 C368.71,173.81 369.62,174.39 370.86,175.95 C373.96,179.88 382.44,193.68 385.10,198.59 C388.66,205.47 393.44,214.74 395.22,217.78 C395.46,217.82 387.48,200.75 385.79,195.44 C384.23,190.47 383.73,187.85 383.39,185.16 C385.16,186.95 386.99,190.33 388.42,194.84 C390.52,201.81 394.03,213.77 396.55,224.57 C399.19,236.93 400.42,243.88 400.11,245.29 C395.61,232.93 392.76,212.23 392.58,205.53 C392.58,205.53 395.36,247.06 395.36,247.06" fill="none" stroke="rgb(0, 0, 0)" stroke-width="10.00" stroke-opacity="1.00" stroke-linejoin="round"/>
<path d="M396.16,258.52 C396.16,258.52 395.08,248.33 395.08,248.33" fill="none" stroke="rgb(0, 0, 0)" stroke-width="10.00" stroke-opacity="1.00" stroke-linejoin="round"/>
<path d="M396.62,261.95 C396.62,261.95 395.38,252.13 395.38,252.13 C395.38,252.13 394.57,245.19 394.57,245.19" fill="none" stroke="rgb(0, 0, 0)" stroke-width="10.00" stroke-opacity="1.00" stroke-linejoin="round"/>
<path d="M394.21,243.55 C394.21,243.55 393.46,238.84 393.46,238.84" fill="none" stroke="rgb(0, 0, 0)" stroke-width="10.00" stroke-opacity="1.00" stroke-linejoin="round"/>
<path d="M394.01,241.19 C394.01,241.19 393.24,236.76 393.24,236.76 C393.24,236.76 392.95,234.81 392.95,234.81" fill="none" stroke="rgb(0, 0, 0)" stroke-width="10.00" stroke-opacity="1.00" stroke-linejoin="round"/>
<path d="M303.66,138.60 C303.06,138.20 297.74,137.41 295.02,137.57 C291.86,137.77 286.76,138.47 285.04,139.03 C282.14,139.99 259.67,149.74 257.45,150.81 C252.74,153.12 248.81,156.05 246.44,157.96 C239.76,163.40 231.47,172.35 227.71,177.52 C223.62,183.18 215.55,197.31 213.51,201.96 C211.17,207.40 208.12,223.30 206.76,231.67 C205.27,242.08 205.11,255.84 205.53,261.06 C205.86,264.96 209.05,277.27 209.86,280.23" fill="none" stroke="rgb(0, 0, 0)" stroke-width="10.00" stroke-opacity="1.00" stroke-linejoin="round"/>
<path d="M257.43,158.79 C257.43,158.79 257.07,160.95 257.07,160.95 C257.38,159.09 257.85,157.57 258.55,156.62 C259.83,154.91 263.67,152.40 267.20,150.98 C273.42,148.70 293.24,141.07 294.45,140.77 C297.64,140.01 314.92,139.37 319.07,140.18 C321.48,140.67 331.49,143.95 332.87,144.53 C337.54,146.52 355.05,161.64 357.60,163.54 C358.27,164.04 361.02,165.98 361.84,166.56" fill="none" stroke="rgb(0, 0, 0)" stroke-width="10.00" stroke-opacity="1.00" stroke-linejoin="round"/>
<path d="M261.86,154.35 C261.86,154.35 261.74,155.07 261.74,155.07 C264.45,153.98 275.43,148.83 283.56,146.15 C294.54,142.70 301.34,141.10 309.60,140.01 C314.29,139.41 318.00,139.29 322.05,139.90 C327.03,140.69 333.54,142.18 338.08,143.60 C342.25,144.93 346.81,147.58 349.62,150.10 C351.82,152.09 357.82,157.49 359.90,158.97 C362.17,160.57 367.75,163.72 370.88,166.98 C372.44,168.64 385.53,184.84 387.62,188.83 C390.28,194.03 393.73,204.76 394.80,208.16 C395.89,211.74 397.34,216.48 397.69,217.62" fill="none" stroke="rgb(0, 0, 0)" stroke-width="10.00" stroke-opacity="1.00" stroke-linejoin="round"/>
<path d="M344.10,148.82 C344.10,148.82 342.87,148.62 342.87,148.62 C345.56,149.31 351.18,151.22 354.44,152.34 C357.89,153.55 361.03,155.25 363.16,157.13 C367.88,161.42 372.55,167.02 379.49,176.21 C382.42,180.26 385.83,185.45 386.89,188.01 C388.32,191.53 392.70,203.82 393.14,205.04" fill="none" stroke="rgb(0, 0, 0)" stroke-width="10.00" stroke-opacity="1.00" stroke-linejoin="round"/>
<path d="M340.86,146.07 C340.86,146.07 338.94,145.75 338.94,145.75 C341.98,146.29 347.26,147.65 350.47,148.82 C353.62,149.99 359.41,153.41 361.39,155.03 C364.12,157.28 375.33,170.28 379.92,175.77 C383.88,180.61 389.33,189.51 391.11,192.47 C391.96,193.93 393.27,196.19 393.73,197.01" fill="none" stroke="rgb(0, 0, 0)" stroke-width="10.00" stroke-opacity="1.00" stroke-linejoin="round"/>
<path d="M209.56,264.10 C210.76,257.22 214.13,238.13 214.95,234.76 C215.72,231.60 221.39,216.58 225.55,210.05 C228.85,204.90 239.68,192.82 242.89,189.99 C246.89,186.49 258.10,179.31 265.61,175.89 C270.30,173.77 284.28,170.41 292.98,169.34 C301.86,168.42 311.03,168.69 318.76,169.46 C326.14,170.26 336.27,173.53 342.11,176.00 C344.64,177.09 353.67,181.83 354.09,182.11 C357.31,184.33 370.15,198.16 374.23,202.21 C379.69,207.68 384.19,215.52 384.26,215.66" fill="none" stroke="rgb(0, 0, 0)" stroke-width="10.00" stroke-opacity="1.00" stroke-linejoin="round"/>
<path d="M388.20,225.79 C388.20,225.79 392.83,236.18 392.83,236.18" fill="none" stroke="rgb(0, 0, 0)" stroke-width="10.00" stroke-opacity="1.00" stroke-linejoin="round"/>
<path d="M390.26,230.54 C390.26,230.54 394.07,241.35 394.07,241.35" fill="none" stroke="rgb(0, 0, 0)" stroke-width="10.00" stroke-opacity="1.00" stroke-linejoin="round"/>
<path d="M391.82,234.77 C391.82,234.77 394.69,245.57 394.69,245.57" fill="none" stroke="rgb(0, 0, 0)" stroke-width="10.00" stroke-opacity="1.00" stroke-linejoin="round"/>
<path d="M392.91,239.42 C392.91,239.42 395.37,250.39 395.37,250.39" fill="none" stroke="rgb(0, 0, 0)" stroke-width="10.00" stroke-opacity="1.00" stroke-linejoin="round"/>
<path d="M393.99,243.99 C393.99,243.99 395.19,255.09 395.19,255.09" fill="none" stroke="rgb(0, 0, 0)" stroke-width="10.00" stroke-opacity="1.00" stroke-linejoin="round"/>
<path d="M395.54,252.28 C395.54,252.28 397.02,258.28 397.02,258.28" fill="none" stroke="rgb(0, 0, 0)" stroke-width="10.00" stroke-opacity="1.00" stroke-linejoin="round"/>
<path d="M395.35,257.47 C395.35,257.47 396.31,264.74 396.31,264.74" fill="none" stroke="rgb(0, 0, 0)" stroke-width="10.00" stroke-opacity="1.00" stroke-linejoin="round"/>
<path d="M393.84,279.03 C393.33,281.41 391.63,287.31 390.68,290.59 C390.19,292.23 389.46,294.50 389.20,295.31" fill="none" stroke="rgb(0, 0, 0)" stroke-width="10.00" stroke-opacity="1.00" stroke-linejoin="round"/>
<path d="M399.13,208.99 C399.29,208.54 399.40,208.33 399.45,208.37 C400.17,209.15 400.40,226.60 400.29,234.68 C400.07,241.20 398.76,258.81 398.16,265.93 C397.83,269.16 395.60,280.52 394.78,284.12" fill="none" stroke="rgb(0, 0, 0)" stroke-width="10.00" stroke-opacity="1.00" stroke-linejoin="round"/>
<path d="M399.97,208.39 C399.97,208.69 402.05,225.41 401.96,232.79 C401.70,246.59 398.24,270.19 396.62,276.24 C394.68,283.08 392.30,290.96 391.95,292.07" fill="none" stroke="rgb(0, 0, 0)" stroke-width="10.00" stroke-opacity="1.00" stroke-linejoin="round"/>
<path d="M352.01,172.32 C350.72,172.53 349.89,172.68 349.51,172.78 C349.13,172.87 348.68,173.05 348.15,173.31 C348.36,173.74 353.16,176.07 356.73,178.53 C359.76,180.64 364.31,184.83 367.38,188.81 C371.80,194.85 385.17,212.41 385.33,212.66 C388.02,217.05 391.01,228.64 393.49,240.66 C395.40,250.59 396.15,260.34 395.04,267.94 C394.42,272.08 393.38,277.16 392.28,281.32 C391.45,284.56 390.33,289.03 390.03,290.27" fill="none" stroke="rgb(0, 0, 0)" stroke-width="10.00" stroke-opacity="1.00" stroke-linejoin="round"/>
<path d="M372.51,191.26 C372.51,191.26 371.25,191.05 371.25,191.05 C373.31,191.63 376.11,194.54 377.75,197.50 C382.36,205.93 385.09,212.48 388.56,223.92 C389.34,226.46 394.87,244.65 395.63,250.23 C396.01,253.08 396.32,260.49 396.27,262.46 C396.20,264.79 394.90,277.66 394.59,280.68" fill="none" stroke="rgb(0, 0, 0)" stroke-width="10.00" stroke-opacity="1.00" stroke-linejoin="round"/>
<path d="M256.95,1183.01 C256.95,1183.01 275.94,1123.08 275.94,1123.08" fill="none" stroke="rgb(0, 0, 0)" stroke-width="10.00" stroke-opacity="1.00" stroke-linejoin="round"/>
<path d="M212.90,246.44 C212.94,246.96 211.43,255.17 211.40,255.40 C211.18,257.16 211.11,264.57 211.08,268.14 C211.02,271.34 210.89,274.80 210.84,276.20" fill="none" stroke="rgb(0, 0, 0)" stroke-width="8.00" stroke-opacity="1.00" stroke-linejoin="round"/>
<path d="M213.27,249.72 C213.27,249.72 213.27,249.54 213.27,249.54 C213.27,249.54 213.03,249.36 213.03,249.36 C213.03,249.36 212.20,249.81 212.20,249.81 C210.68,258.37 209.19,272.50 209.56,277.85 C209.57,277.99 209.89,280.88 210.09,282.93" fill="none" stroke="rgb(0, 0, 0)" stroke-width="8.00" stroke-opacity="1.00" stroke-linejoin="round"/>
<path d="M211.08,248.63 C211.02,248.94 210.30,252.55 210.39,259.01 C210.52,262.91 210.83,270.15 211.01,273.51 C211.39,279.76 212.22,285.72 212.37,286.76" fill="none" stroke="rgb(0, 0, 0)" stroke-width="8.00" stroke-opacity="1.00" stroke-linejoin="round"/>
<path d="M212.90,244.98 C212.31,245.44 212.11,247.09 211.86,250.70 C211.55,256.70 211.02,268.53 211.33,276.60 C211.62,283.87 214.03,289.37 214.50,290.45" fill="none" stroke="rgb(0, 0, 0)" stroke-width="8.00" stroke-opacity="1.00" stroke-linejoin="round"/>
<path d="M214.00,245.35 C213.29,247.15 213.24,252.52 212.81,262.98 C212.74,266.10 212.67,272.12 212.72,275.03 C212.86,280.66 214.62,289.03 214.86,290.13" fill="none" stroke="rgb(0, 0, 0)" stroke-width="8.00" stroke-opacity="1.00" stroke-linejoin="round"/>
<path d="M213.27,247.54 C213.27,247.54 212.89,247.69 212.89,247.69 C212.01,250.07 211.39,266.97 211.62,271.44 C211.76,273.99 212.54,281.20 213.29,284.64 C213.61,286.14 215.26,291.54 215.56,292.51" fill="none" stroke="rgb(0, 0, 0)" stroke-width="8.00" stroke-opacity="1.00" stroke-linejoin="round"/>
<path d="M201.97,249.36 C201.97,249.36 201.97,248.99 201.97,248.99 C202.04,255.85 203.35,265.01 205.46,271.90 C206.71,276.00 211.65,286.78 212.90,290.19" fill="none" stroke="rgb(0, 0, 0)" stroke-width="8.00" stroke-opacity="1.00" stroke-linejoin="round"/>
<path d="M201.97,257.74 C201.53,258.65 201.72,263.52 202.48,266.68 C203.64,271.44 207.93,283.79 210.18,287.38 C211.16,288.92 213.85,292.05 215.09,293.47" fill="none" stroke="rgb(0, 0, 0)" stroke-width="8.00" stroke-opacity="1.00" stroke-linejoin="round"/>
<path d="M203.06,258.11 C202.62,258.87 202.85,263.82 203.45,266.48 C204.89,272.59 209.24,284.03 211.87,288.46 C212.57,289.63 214.32,292.19 215.46,293.84" fill="none" stroke="rgb(0, 0, 0)" stroke-width="8.00" stroke-opacity="1.00" stroke-linejoin="round"/>
<path d="M202.33,260.30 C201.84,263.35 202.50,267.65 203.38,270.57 C204.67,274.80 205.89,278.37 207.55,282.39 C211.16,290.90 214.49,295.29 215.82,297.12" fill="none" stroke="rgb(0, 0, 0)" stroke-width="8.00" stroke-opacity="1.00" stroke-linejoin="round"/>
<path d="M203.06,261.75 C202.61,261.73 202.78,266.08 203.38,269.04 C204.48,274.17 208.45,285.14 210.96,288.93 C212.35,291.00 214.15,292.90 216.18,294.93" fill="none" stroke="rgb(0, 0, 0)" stroke-width="8.00" stroke-opacity="1.00" stroke-linejoin="round"/>
<path d="M202.33,259.20 C201.93,261.31 202.05,266.06 203.02,269.63 C204.54,275.10 209.32,287.86 212.18,292.22 C212.71,293.01 214.58,295.56 215.46,296.75" fill="none" stroke="rgb(0, 0, 0)" stroke-width="8.00" stroke-opacity="1.00" stroke-linejoin="round"/>
<path d="M201.24,261.75 C200.67,263.15 201.12,267.15 202.46,271.44 C203.38,274.19 205.87,281.40 206.49,282.97 C207.46,285.40 210.41,291.74 212.26,294.21 C212.42,294.42 214.66,297.13 215.82,298.57" fill="none" stroke="rgb(0, 0, 0)" stroke-width="8.00" stroke-opacity="1.00" stroke-linejoin="round"/>
<path d="M202.33,263.58 C202.33,263.58 201.40,263.58 201.40,263.58 C200.52,263.96 205.91,280.65 208.71,286.71 C212.55,294.99 217.20,300.94 220.62,303.93" fill="none" stroke="rgb(0, 0, 0)" stroke-width="8.00" stroke-opacity="1.00" stroke-linejoin="round"/>
<path d="M379.87,210.35 C379.87,210.35 379.87,210.17 379.87,210.17 C379.87,210.17 379.51,209.28 379.51,209.28 C381.02,210.97 386.85,225.22 387.69,228.82 C389.13,234.85 392.06,247.74 392.71,251.41 C393.43,255.69 394.03,271.08 393.68,276.55 C393.33,281.65 391.19,291.14 390.08,296.02" fill="none" stroke="rgb(0, 0, 0)" stroke-width="8.00" stroke-opacity="1.00" stroke-linejoin="round"/>
<path d="M393.73,281.44 C393.73,281.44 393.73,280.38 393.73,280.38 C393.75,280.27 393.64,282.76 393.56,283.60 C393.40,285.27 391.69,290.84 390.29,294.57 C389.11,297.65 386.89,302.09 386.01,303.75" fill="none" stroke="rgb(0, 0, 0)" stroke-width="8.00" stroke-opacity="1.00" stroke-linejoin="round"/>
<path d="M393.73,282.53 C393.73,282.48 393.71,282.30 393.69,282.36 C392.67,286.05 390.31,292.27 389.34,294.58 C388.01,297.72 384.63,304.89 383.28,307.15 C383.09,307.48 382.80,307.91 382.44,308.45" fill="none" stroke="rgb(0, 0, 0)" stroke-width="8.00" stroke-opacity="1.00" stroke-linejoin="round"/>
<path d="M394.45,283.26 C393.88,287.12 390.78,294.35 386.03,303.24 C384.35,306.31 381.94,310.12 381.12,311.32" fill="none" stroke="rgb(0, 0, 0)" stroke-width="8.00" stroke-opacity="1.00" stroke-linejoin="round"/>
<path d="M395.55,283.99 C394.92,285.05 394.75,285.42 394.27,286.85 C393.56,288.92 390.57,295.38 389.04,298.11 C387.57,300.73 382.50,308.65 381.04,310.78 C380.66,311.33 380.28,311.88 379.90,312.42" fill="none" stroke="rgb(0, 0, 0)" stroke-width="8.00" stroke-opacity="1.00" stroke-linejoin="round"/>
<path d="M397.01,278.89 C397.03,278.85 396.81,279.95 396.46,281.20 C395.55,284.51 392.45,293.23 391.80,294.74 C391.03,296.54 389.80,299.05 389.06,300.41" fill="none" stroke="rgb(0, 0, 0)" stroke-width="8.00" stroke-opacity="1.00" stroke-linejoin="round"/>
<path d="M399.56,278.16 C399.56,278.16 399.56,277.80 399.56,277.80 C399.36,278.90 396.86,284.29 395.90,286.19 C394.45,289.07 391.27,294.80 389.54,297.59 C388.01,300.04 385.44,303.79 384.83,304.68" fill="none" stroke="rgb(0, 0, 0)" stroke-width="8.00" stroke-opacity="1.00" stroke-linejoin="round"/>
<path d="M139.26,143.27 C139.57,143.29 140.52,141.55 140.66,141.04 C140.70,140.88 140.72,140.65 140.72,140.37 C139.09,142.96 137.27,147.87 136.92,150.27 C136.73,151.67 136.79,154.92 137.06,156.42 C137.68,159.71 144.08,169.25 150.91,178.02 C153.52,181.30 158.87,187.46 160.32,189.41 C160.71,189.95 161.11,190.49 161.50,191.03" fill="none" stroke="rgb(0, 0, 0)" stroke-width="8.00" stroke-opacity="1.00" stroke-linejoin="round"/>
<path d="M161.61,188.11 C161.32,188.65 153.59,209.90 153.40,210.58 C153.27,211.05 153.06,212.06 152.75,213.63" fill="none" stroke="rgb(0, 0, 0)" stroke-width="8.00" stroke-opacity="1.00" stroke-linejoin="round"/>
<path d="M137.48,149.47 C137.48,149.47 136.98,149.83 136.98,149.83 C136.38,148.04 137.50,143.80 139.59,139.13 C141.55,135.01 147.60,128.73 156.49,120.04 C161.04,115.62 171.01,108.63 176.74,104.53 C179.27,102.71 182.98,100.31 185.69,99.44 C188.59,98.57 193.17,99.96 196.07,101.31 C200.88,103.63 207.43,109.62 214.04,114.50 C222.08,120.44 225.42,122.68 227.20,123.90 C227.59,124.15 228.41,124.65 229.67,125.41" fill="none" stroke="rgb(0, 0, 0)" stroke-width="8.00" stroke-opacity="1.00" stroke-linejoin="round"/>
<path d="M227.12,124.32 C229.14,124.25 231.52,123.33 237.40,120.85 C240.61,119.45 248.69,115.93 249.09,115.69 C250.78,114.67 253.67,109.31 254.87,106.36 C256.30,102.71 258.13,87.21 259.75,81.63 C260.92,77.72 264.20,71.95 265.42,70.72 C267.10,69.13 271.76,66.64 273.68,66.06 C276.63,65.19 299.18,62.45 300.10,62.36 C304.99,61.87 322.84,62.03 326.79,62.75 C329.15,63.19 333.83,63.73 335.44,64.75 C338.65,66.81 341.74,70.48 342.31,72.36 C343.08,75.05 344.40,80.70 345.07,83.65 C346.22,89.03 346.91,111.86 347.57,114.54 C347.62,114.71 347.69,114.93 347.79,115.20" fill="none" stroke="rgb(0, 0, 0)" stroke-width="8.00" stroke-opacity="1.00" stroke-linejoin="round"/>
<path d="M347.79,107.55 C347.79,107.55 348.16,107.07 348.16,107.07 C347.89,108.39 347.38,111.68 347.46,112.63 C347.62,114.15 352.72,117.76 356.76,120.07 C360.84,122.36 365.33,123.41 368.59,123.14 C370.62,122.92 374.11,120.70 378.66,117.49 C384.80,113.20 394.31,108.22 401.01,106.18 C404.78,105.06 410.28,104.95 413.07,105.35 C416.91,105.94 427.47,109.62 431.38,111.82 C436.37,114.65 440.78,118.35 447.10,125.08 C449.04,127.17 452.69,131.13 454.65,133.73 C456.40,136.08 459.18,141.40 459.98,144.41 C460.82,147.70 460.73,155.68 459.50,158.99 C458.04,162.81 451.70,172.58 447.78,176.65 C445.88,178.62 440.62,183.57 439.64,185.76 C438.88,187.60 440.34,193.16 440.87,195.13 C443.43,204.63 444.63,207.77 446.29,212.67" fill="none" stroke="rgb(0, 0, 0)" stroke-width="8.00" stroke-opacity="1.00" stroke-linejoin="round"/>
<path d="M444.03,206.34 C444.03,206.34 444.40,205.25 444.40,205.25 C444.74,206.88 445.29,211.35 446.04,212.68 C447.13,214.47 449.17,215.79 451.87,216.26 C454.31,216.65 468.71,218.34 472.62,218.75 C479.03,219.44 486.10,220.80 488.30,221.84 C490.60,222.98 494.46,228.16 495.73,230.39 C498.35,235.10 500.85,244.96 501.54,252.11 C501.84,255.24 502.06,271.84 501.45,279.34 C500.60,288.23 498.99,300.00 496.12,302.37 C496.01,302.45 488.57,305.03 485.08,306.29 C484.33,306.52 463.48,309.64 460.83,309.86 C457.49,310.15 452.98,311.05 451.39,312.35 C449.54,313.94 446.80,320.23 445.60,323.78 C445.18,325.01 444.20,330.80 443.28,332.74 C442.85,333.64 441.61,335.78 440.75,337.22" fill="none" stroke="rgb(0, 0, 0)" stroke-width="8.00" stroke-opacity="1.00" stroke-linejoin="round"/>
<path d="M443.67,328.83 C443.95,328.56 444.11,328.42 444.14,328.40 C444.14,328.40 444.10,328.60 444.02,329.01 C443.78,330.14 442.79,337.56 443.67,339.57 C444.85,342.12 451.73,350.66 458.70,360.01 C461.31,363.54 463.65,368.00 464.29,371.55 C464.54,373.19 463.41,377.44 461.71,380.51 C457.34,388.38 451.41,397.11 449.80,399.63 C446.99,404.01 439.17,412.92 434.92,416.26 C430.71,419.36 415.84,426.72 415.59,426.81 C415.25,426.93 411.23,427.65 410.48,427.69 C408.60,427.76 405.75,427.08 403.29,426.03 C399.16,424.19 396.17,421.53 392.81,417.66 C388.75,413.11 377.44,400.13 375.87,399.73 C374.18,399.38 369.88,400.07 367.14,401.29 C360.30,404.38 354.07,408.18 349.80,412.55 C349.33,413.03 347.40,415.45 346.70,416.33" fill="none" stroke="rgb(0, 0, 0)" stroke-width="8.00" stroke-opacity="1.00" stroke-linejoin="round"/>
<path d="M154.17,208.16 C153.11,209.40 151.11,214.81 150.14,215.48 C149.56,215.86 142.85,218.18 139.88,218.60 C137.47,218.93 129.95,219.52 126.64,219.84 C123.10,220.19 116.20,221.87 113.75,222.78 C110.79,223.96 107.15,228.25 104.37,233.47 C102.07,237.93 100.14,245.49 99.63,252.98 C98.70,264.19 99.16,271.83 99.86,278.68 C100.31,283.03 103.25,294.28 105.57,298.03 C106.76,299.90 110.98,304.91 113.18,306.01 C115.75,307.24 120.42,307.69 122.96,307.70 C127.36,307.68 132.74,307.28 136.53,306.97 C138.71,306.85 146.02,307.44 148.44,308.83 C149.83,309.65 152.47,312.44 153.49,314.03 C154.79,316.16 156.83,324.19 157.60,326.15 C158.39,328.02 160.12,332.51 160.32,332.72 C160.53,332.95 161.17,333.48 162.23,334.30" fill="none" stroke="rgb(0, 0, 0)" stroke-width="8.00" stroke-opacity="1.00" stroke-linejoin="round"/>
<path d="M158.22,328.83 C158.41,329.68 158.71,330.34 159.96,332.84 C160.38,333.72 160.33,334.33 159.85,335.56 C159.77,335.74 156.47,343.62 154.99,345.53 C153.08,347.94 146.76,355.18 145.57,356.77 C142.67,360.68 140.27,366.18 140.02,368.97 C139.82,371.75 140.96,376.12 142.82,379.24 C146.52,385.35 152.68,393.89 158.81,400.60 C165.44,407.90 172.35,416.01 175.70,418.78 C177.07,419.90 184.25,425.16 185.97,425.81 C188.95,426.90 194.90,427.29 196.64,426.94 C199.40,426.33 203.55,423.31 206.54,420.51 C212.53,414.92 222.43,408.00 226.41,406.59 C228.65,405.85 232.10,406.68 237.75,408.92 C240.26,409.97 245.12,412.65 246.59,413.89 C248.48,415.52 250.29,418.78 252.31,423.62 C254.49,428.89 256.08,440.27 258.02,445.53 C258.92,447.93 261.10,452.69 263.10,455.34 C265.37,458.30 270.10,461.07 272.73,461.66 C273.96,461.91 292.39,463.39 298.00,463.27 C306.89,463.09 319.03,461.19 322.14,460.35 C324.26,459.78 333.33,456.55 334.15,455.93 C335.89,454.57 338.84,449.92 340.19,445.50 C341.75,440.25 344.06,424.39 344.89,421.67 C346.63,416.16 349.25,411.76 350.77,410.85 C350.92,410.77 351.14,410.65 351.44,410.49" fill="none" stroke="rgb(0, 0, 0)" stroke-width="8.00" stroke-opacity="1.00" stroke-linejoin="round"/>
<path d="M275.87,773.66 C272.62,758.11 266.15,726.95 262.92,711.35 C258.40,685.90 252.19,646.31 251.50,641.82" fill="none" stroke="rgb(0, 0, 0)" stroke-width="8.00" stroke-opacity="1.00" stroke-linejoin="round"/>
<path d="M299.80,776.71 C300.02,772.26 301.10,760.38 301.80,753.68 C302.81,741.50 304.19,685.67 304.33,679.39" fill="none" stroke="rgb(0, 0, 0)" stroke-width="8.00" stroke-opacity="1.00" stroke-linejoin="round"/>
<path d="M280.92,79.43" fill="none" stroke="rgb(0, 0, 0)" stroke-width="5.00" stroke-opacity="1.00" stroke-linejoin="round"/>
<path d="M397.62,279.30 C397.62,279.30 397.62,277.90 397.62,277.90 C397.52,279.35 389.11,300.49 386.93,303.93 C384.57,307.63 376.21,318.75 371.49,323.63 C368.48,326.77 367.63,327.74 364.91,331.05" fill="none" stroke="rgb(0, 0, 0)" stroke-width="5.00" stroke-opacity="1.00" stroke-linejoin="round"/>
<path d="M401.53,269.21 C401.53,269.21 401.17,269.21 401.17,269.21 C401.12,269.17 398.45,278.28 396.44,285.25 C394.68,290.73 386.40,303.50 384.90,305.53 C384.15,306.54 381.58,309.67 380.86,310.55" fill="none" stroke="rgb(0, 0, 0)" stroke-width="5.00" stroke-opacity="1.00" stroke-linejoin="round"/>
<path d="M344.24,177.41 C344.04,177.23 343.94,177.12 343.93,177.08 C343.86,176.64 354.81,185.03 357.01,187.13 C358.13,188.21 372.31,201.87 375.84,206.64 C379.93,212.19 384.25,219.51 385.17,220.88 C385.72,221.70 386.66,223.08 387.04,223.63" fill="none" stroke="rgb(0, 0, 0)" stroke-width="5.00" stroke-opacity="1.00" stroke-linejoin="round"/>
<path d="M344.73,178.71 C344.73,178.71 344.09,178.55 344.09,178.55 C344.98,178.62 349.50,181.70 351.02,182.61 C353.89,184.37 365.45,195.17 367.19,196.81 C373.33,202.68 380.23,214.62 382.94,219.82 C383.39,220.67 384.06,221.92 384.28,222.33" fill="none" stroke="rgb(0, 0, 0)" stroke-width="5.00" stroke-opacity="1.00" stroke-linejoin="round"/>
<path d="M364.75,194.50 C364.75,194.50 364.58,194.50 364.58,194.50 C365.23,194.95 367.40,197.40 369.28,200.09 C374.43,207.52 378.82,214.48 381.15,217.92 C386.80,226.58 389.78,240.85 390.16,242.64 C390.36,243.56 390.56,244.48 390.76,245.41 C390.88,245.96 391.00,246.52 391.11,247.07" fill="none" stroke="rgb(0, 0, 0)" stroke-width="5.00" stroke-opacity="1.00" stroke-linejoin="round"/>
<path d="M377.28,207.68 C377.28,207.68 376.95,207.88 376.95,207.88 C377.05,208.24 382.75,221.89 384.73,227.02 C386.24,231.08 388.82,242.76 389.60,247.03 C390.63,253.23 391.48,267.17 391.18,272.66 C390.89,277.76 388.59,292.84 386.93,298.04 C386.74,298.65 385.72,301.55 385.42,302.41" fill="none" stroke="rgb(0, 0, 0)" stroke-width="5.00" stroke-opacity="1.00" stroke-linejoin="round"/>
<path d="M213.67,247.98 C213.67,247.98 213.67,247.47 213.67,247.47 C213.75,247.57 212.57,265.89 212.56,268.54 C212.54,272.83 213.08,279.86 213.67,284.23 C214.98,293.19 219.02,304.19 219.40,305.15 C219.64,305.74 220.14,306.86 220.92,308.51" fill="none" stroke="rgb(0, 0, 0)" stroke-width="5.00" stroke-opacity="1.00" stroke-linejoin="round"/>
<path d="M213.39,246.31 C213.39,246.31 213.11,246.31 213.11,246.31 C213.06,250.52 212.37,265.71 212.68,271.98 C212.93,276.87 214.54,289.95 216.86,296.39 C218.16,299.89 220.59,306.40 222.08,309.17 C222.32,309.60 222.67,310.22 223.16,311.02" fill="none" stroke="rgb(0, 0, 0)" stroke-width="5.00" stroke-opacity="1.00" stroke-linejoin="round"/>
<path d="M201.12,244.91 C201.12,244.91 200.84,244.36 200.84,244.36 C200.84,246.44 203.54,268.26 204.30,271.13 C206.46,279.31 209.96,289.66 212.42,295.11 C214.86,300.46 218.75,305.84 219.68,307.11 C220.09,307.67 220.51,308.23 220.92,308.79" fill="none" stroke="rgb(0, 0, 0)" stroke-width="5.00" stroke-opacity="1.00" stroke-linejoin="round"/>
<path d="M201.12,248.26 C201.15,248.08 201.15,247.97 201.12,247.93 C201.09,247.89 201.00,247.86 200.84,247.83 C200.84,255.11 202.55,265.33 204.78,273.24 C206.00,277.51 212.74,296.02 213.78,298.09 C218.40,307.17 221.04,311.18 221.95,312.29 C222.27,312.68 224.15,314.54 224.83,315.21" fill="none" stroke="rgb(0, 0, 0)" stroke-width="5.00" stroke-opacity="1.00" stroke-linejoin="round"/>
<path d="M394.15,276.99 C394.15,276.99 393.59,276.71 393.59,276.71 C393.57,281.53 392.80,286.04 391.96,289.49 C391.26,292.32 389.76,296.55 389.15,298.15" fill="none" stroke="rgb(0, 0, 0)" stroke-width="5.00" stroke-opacity="1.00" stroke-linejoin="round"/>
<path d="M394.71,278.39 C394.71,278.39 394.60,278.39 394.60,278.39 C394.29,278.63 394.09,278.85 393.91,279.47 C393.82,279.77 389.70,294.69 389.24,295.88 C388.42,297.94 387.76,299.21 387.18,299.87" fill="none" stroke="rgb(0, 0, 0)" stroke-width="5.00" stroke-opacity="1.00" stroke-linejoin="round"/>
</g>
</svg>
