<?xml version="1.0" encoding="UTF-8" standalone="no"?>
<svg
   width="96.609596"
   height="114.05471"
   viewBox="0 0 402.53998 475.22796"
   version="1.1"
   id="svg1099"
   sodipodi:docname="Tarot_edited.svg"
   inkscape:version="1.1.2 (0a00cf5339, 2022-02-04, custom)"
   xmlns:inkscape="http://www.inkscape.org/namespaces/inkscape"
   xmlns:sodipodi="http://sodipodi.sourceforge.net/DTD/sodipodi-0.dtd"
   xmlns="http://www.w3.org/2000/svg"
   xmlns:svg="http://www.w3.org/2000/svg">
  <defs
     id="defs1103" />
  <sodipodi:namedview
     id="namedview1101"
     pagecolor="#505050"
     bordercolor="#eeeeee"
     borderopacity="1"
     inkscape:pageshadow="0"
     inkscape:pageopacity="0"
     inkscape:pagecheckerboard="0"
     showgrid="false"
     inkscape:zoom="8.2916667"
     inkscape:cx="52.522613"
     inkscape:cy="49.20603"
     inkscape:window-width="2560"
     inkscape:window-height="1377"
     inkscape:window-x="-8"
     inkscape:window-y="-8"
     inkscape:window-maximized="1"
     inkscape:current-layer="svg1099" />
  <g
     stroke-linecap="round"
     id="Layer_1"
     transform="translate(-180.69,-54.899751)">
    <path
       d="m 200.17,194.05 c 0,0 -2.63,0 -2.63,0 2.85,4.16 22.17,67.03 26.63,81.74 0.69,2.1 14.89,41.76 20.39,57.31 10.7,28.32 31.61,85.05 42.36,113.65 5.18,14.21 10.72,29.4 20.57,53.82 5.27,13.66 6.92,17.31 12.25,24.6 0,0 -0.42,-4.31 -0.42,-4.31"
       fill="none"
       stroke="#000000"
       stroke-width="9"
       stroke-opacity="1"
       stroke-linejoin="round"
       id="path1072" />
    <path
       d="m 322.73,524.26 c 0,0 -2.04,1.37 -2.04,1.37 0.05,0.02 15.34,-3.24 25.36,-6.54 10.8,-3.76 45.4,-17.56 55.14,-21.03 7.83,-2.55 54.41,-21.21 58.1,-22.85 2.12,-0.95 37.69,-18.23 50.89,-24.3 1.47,-0.69 3.69,-1.79 4.55,-2.22 0,0 -0.34,0 -0.34,0"
       fill="none"
       stroke="#000000"
       stroke-width="9"
       stroke-opacity="1"
       stroke-linejoin="round"
       id="path1074" />
    <path
       d="m 200.17,195.41 c 0,0 -1.36,1.36 -1.36,1.36 7.51,-4.46 12.67,-7.96 19.87,-12.34 9.33,-5.48 18.28,-10.19 27.56,-14.59 14.1,-6.21 40.41,-18.35 53.53,-24.48 12.14,-5.23 38.81,-17.1 53.34,-23.74 19.91,-8.83 32.51,-12.99 33.03,-13.19 1.06,-0.37 4.6,2.82 6.24,5.68 2.59,4.65 6.85,16.66 8.81,22.41 11.3,32.72 31.47,91.68 40.34,117.92 10.02,28.78 31.36,88.99 42.67,120.43 4.8,12.32 16.94,43.97 20.34,50.51 4.29,8.49 6.72,14.59 9.92,24.36"
       fill="none"
       stroke="#000000"
       stroke-width="9"
       stroke-opacity="1"
       stroke-linejoin="round"
       id="path1076" />
    <path
       d="m 266.22,155.24 c 0,0 0.68,0.68 0.68,0.68 0,0 -8.8,-20.1 -8.8,-20.1 1.93,-3.18 10.39,-8.34 21.17,-13.81 12.79,-6.29 40.7,-19.03 55.7,-25.91 7.57,-3.35 19.28,-8.46 26.66,-11.01 12.13,-3.87 65.62,-24.78 67.34,-25.08 0.74,-0.13 3.97,-0.41 5.68,-0.59 2.03,-0.14 4.09,0.6 5.39,1.86 1.41,1.45 16.63,38.91 21.77,52.68 4.8,13.5 13.6,38.98 18.27,52.13 5.61,14.81 16.86,44.57 22.48,59.51 9.59,28.09 31.55,93.43 38.24,115.59 3.97,13.79 13.32,45.23 16.77,53.02 -1.84,1.05 -14.75,9.61 -22.31,12.98 -12.75,5.51 -19.32,9.06 -23.7,10.75 -2.42,0.93 -3.24,1.3 -3.59,1.62 0,0 0.64,-0.83 0.64,-0.83"
       fill="none"
       stroke="#000000"
       stroke-width="9"
       stroke-opacity="1"
       stroke-linejoin="round"
       id="path1078" />
    <path
       d="m 192.68,316.6 c -0.2,0.46 -0.36,0.82 -0.5,1.09 -0.36,0.81 1.63,7.94 2.04,10.13 0.34,1.81 1.07,9.69 1,12.02 -0.07,1.77 -1.54,9.26 -1.87,10.34 -1.22,3.81 -7.65,12.08 -8.16,12.72"
       fill="none"
       stroke="#000000"
       stroke-width="9"
       stroke-opacity="1"
       stroke-linejoin="round"
       id="path1080" />
    <path
       d="m 192.68,315.92 c 0,0 -1.31,0.09 -1.31,0.09 1.04,1.57 9.97,20.68 11.5,22.47 1.74,1.98 4.62,4.66 7.25,5.96 1.15,0.55 8.58,3.53 9.78,3.9"
       fill="none"
       stroke="#000000"
       stroke-width="9"
       stroke-opacity="1"
       stroke-linejoin="round"
       id="path1082" />
    <path
       d="m 191.32,357.45 c -0.1,-0.01 -0.4,0.06 -0.3,0.1 5.69,2.83 8.83,4.89 11.35,6.88 4.91,3.92 10.38,12.15 12.1,14.77 -1.14,-3.74 -1.44,-8.8 -0.96,-12.53 1.08,-8.02 2.45,-13.16 3.34,-16.01"
       fill="none"
       stroke="#000000"
       stroke-width="9"
       stroke-opacity="1"
       stroke-linejoin="round"
       id="path1084" />
    <path
       d="m 516.09,87.15 c 0.88,3.26 0.34,16.35 -0.88,22.55 -0.76,3.74 -2.05,8.47 -3.49,12.79 -1.24,3.66 -3.55,7.24 -5.14,8.93 -0.42,0.43 -1.33,1.33 -2.74,2.71"
       fill="none"
       stroke="#000000"
       stroke-width="9"
       stroke-opacity="1"
       stroke-linejoin="round"
       id="path1086" />
    <path
       d="m 518.14,86.47 c 2.42,6.37 7,16.03 11.16,20.81 2.5,2.82 10.06,8.69 12.14,9.72 1.3,0.62 3,0.95 4.27,0.89 0.45,-0.03 1.24,-0.06 2.39,-0.1"
       fill="none"
       stroke="#000000"
       stroke-width="9"
       stroke-opacity="1"
       stroke-linejoin="round"
       id="path1088" />
    <path
       d="m 506.56,134.05 c 0,0 0.16,-1.02 0.16,-1.02 3.19,-0.15 9.95,1.61 11.23,2.03 2.72,0.9 6.94,3.19 9.01,4.54 3.46,2.33 9.22,12.06 9.78,12.51 0.09,-1.11 -0.82,-5.14 -0.49,-7.8 0.36,-2.66 2.06,-8.65 3.2,-11.73 0.98,-2.58 5.71,-12.1 5.65,-12.67"
       fill="none"
       stroke="#000000"
       stroke-width="9"
       stroke-opacity="1"
       stroke-linejoin="round"
       id="path1090" />
    <path
       d="m 558.31,132.77 c 0.23,0.42 0.8,5.9 0.53,9.22 -0.39,4.37 -1.61,10.25 -3.38,13.51 -0.56,1.01 -2.59,4.05 -3.32,5.02 -1.81,2.33 -4.9,3.41 -6.09,3.57"
       fill="none"
       stroke="#000000"
       stroke-width="9"
       stroke-opacity="1"
       stroke-linejoin="round"
       id="path1092" />
    <path
       d="m 560.35,134.81 c -0.2,-0.38 -0.74,-1.54 -0.65,-1.12 0.8,3.3 7.52,13.73 11.38,17.58 1.32,1.29 3.53,3.37 4.25,3.93 1.08,0.83 2.6,1.73 3.4,2.08"
       fill="none"
       stroke="#000000"
       stroke-width="9"
       stroke-opacity="1"
       stroke-linejoin="round"
       id="path1094" />
    <path
       d="m 549.46,165.45 c 2.87,0.92 8.47,4.86 11.79,7.18 8.17,5.83 8.74,6.78 8.68,7.12 -0.54,-3.71 -0.54,-7.59 0.75,-11.39 0.63,-1.82 3.41,-8.92 3.63,-9.44 0.17,-0.41 0.51,-1.19 1.02,-2.32"
       fill="none"
       stroke="#000000"
       stroke-width="9"
       stroke-opacity="1"
       stroke-linejoin="round"
       id="path1096" />
  </g>
</svg>
