<?xml version="1.0" encoding="UTF-8" standalone="no"?>
<!DOCTYPE svg PUBLIC "-//W3C//DTD SVG 1.1//EN" "http://www.w3.org/Graphics/SVG/1.1/DTD/svg11.dtd">
<svg width="192.00" height="144.00" viewBox="0.00 0.00 800.00 600.00" xmlns="http://www.w3.org/2000/svg" xmlns:xlink="http://www.w3.org/1999/xlink">
<g stroke-linecap="round" id="Layer_1">
<path d="M200.17,194.05 C200.17,194.05 197.54,194.05 197.54,194.05 C200.39,198.21 219.71,261.08 224.17,275.79 C224.86,277.89 239.06,317.55 244.56,333.10 C255.26,361.42 276.17,418.15 286.92,446.75 C292.10,460.96 297.64,476.15 307.49,500.57 C312.76,514.23 314.41,517.88 319.74,525.17 C319.74,525.17 319.32,520.86 319.32,520.86" fill="none" stroke="rgb(0, 0, 0)" stroke-width="9.00" stroke-opacity="1.00" stroke-linejoin="round"/>
<path d="M322.73,524.26 C322.73,524.26 320.69,525.63 320.69,525.63 C320.74,525.65 336.03,522.39 346.05,519.09 C356.85,515.33 391.45,501.53 401.19,498.06 C409.02,495.51 455.60,476.85 459.29,475.21 C461.41,474.26 496.98,456.98 510.18,450.91 C511.65,450.22 513.87,449.12 514.73,448.69 C514.73,448.69 514.39,448.69 514.39,448.69" fill="none" stroke="rgb(0, 0, 0)" stroke-width="9.00" stroke-opacity="1.00" stroke-linejoin="round"/>
<path d="M200.17,195.41 C200.17,195.41 198.81,196.77 198.81,196.77 C206.32,192.31 211.48,188.81 218.68,184.43 C228.01,178.95 236.96,174.24 246.24,169.84 C260.34,163.63 286.65,151.49 299.77,145.36 C311.91,140.13 338.58,128.26 353.11,121.62 C373.02,112.79 385.62,108.63 386.14,108.43 C387.20,108.06 390.74,111.25 392.38,114.11 C394.97,118.76 399.23,130.77 401.19,136.52 C412.49,169.24 432.66,228.20 441.53,254.44 C451.55,283.22 472.89,343.43 484.20,374.87 C489.00,387.19 501.14,418.84 504.54,425.38 C508.83,433.87 511.26,439.97 514.46,449.74" fill="none" stroke="rgb(0, 0, 0)" stroke-width="9.00" stroke-opacity="1.00" stroke-linejoin="round"/>
<path d="M266.22,155.24 C266.22,155.24 266.90,155.92 266.90,155.92 C266.90,155.92 258.10,135.82 258.10,135.82 C260.03,132.64 268.49,127.48 279.27,122.01 C292.06,115.72 319.97,102.98 334.97,96.10 C342.54,92.75 354.25,87.64 361.63,85.09 C373.76,81.22 427.25,60.31 428.97,60.01 C429.71,59.88 432.94,59.60 434.65,59.42 C436.68,59.28 438.74,60.02 440.04,61.28 C441.45,62.73 456.67,100.19 461.81,113.96 C466.61,127.46 475.41,152.94 480.08,166.09 C485.69,180.90 496.94,210.66 502.56,225.60 C512.15,253.69 534.11,319.03 540.80,341.19 C544.77,354.98 554.12,386.42 557.57,394.21 C555.73,395.26 542.82,403.82 535.26,407.19 C522.51,412.70 515.94,416.25 511.56,417.94 C509.14,418.87 508.32,419.24 507.97,419.56 C507.97,419.56 508.61,418.73 508.61,418.73" fill="none" stroke="rgb(0, 0, 0)" stroke-width="9.00" stroke-opacity="1.00" stroke-linejoin="round"/>
<path d="M192.68,316.60 C192.48,317.06 192.32,317.42 192.18,317.69 C191.82,318.50 193.81,325.63 194.22,327.82 C194.56,329.63 195.29,337.51 195.22,339.84 C195.15,341.61 193.68,349.10 193.35,350.18 C192.13,353.99 185.70,362.26 185.19,362.90" fill="none" stroke="rgb(0, 0, 0)" stroke-width="9.00" stroke-opacity="1.00" stroke-linejoin="round"/>
<path d="M192.68,315.92 C192.68,315.92 191.37,316.01 191.37,316.01 C192.41,317.58 201.34,336.69 202.87,338.48 C204.61,340.46 207.49,343.14 210.12,344.44 C211.27,344.99 218.70,347.97 219.90,348.34" fill="none" stroke="rgb(0, 0, 0)" stroke-width="9.00" stroke-opacity="1.00" stroke-linejoin="round"/>
<path d="M191.32,357.45 C191.22,357.44 190.92,357.51 191.02,357.55 C196.71,360.38 199.85,362.44 202.37,364.43 C207.28,368.35 212.75,376.58 214.47,379.20 C213.33,375.46 213.03,370.40 213.51,366.67 C214.59,358.65 215.96,353.51 216.85,350.66" fill="none" stroke="rgb(0, 0, 0)" stroke-width="9.00" stroke-opacity="1.00" stroke-linejoin="round"/>
<path d="M516.09,87.15 C516.97,90.41 516.43,103.50 515.21,109.70 C514.45,113.44 513.16,118.17 511.72,122.49 C510.48,126.15 508.17,129.73 506.58,131.42 C506.16,131.85 505.25,132.75 503.84,134.13" fill="none" stroke="rgb(0, 0, 0)" stroke-width="9.00" stroke-opacity="1.00" stroke-linejoin="round"/>
<path d="M518.14,86.47 C520.56,92.84 525.14,102.50 529.30,107.28 C531.80,110.10 539.36,115.97 541.44,117.00 C542.74,117.62 544.44,117.95 545.71,117.89 C546.16,117.86 546.95,117.83 548.10,117.79" fill="none" stroke="rgb(0, 0, 0)" stroke-width="9.00" stroke-opacity="1.00" stroke-linejoin="round"/>
<path d="M506.56,134.05 C506.56,134.05 506.72,133.03 506.72,133.03 C509.91,132.88 516.67,134.64 517.95,135.06 C520.67,135.96 524.89,138.25 526.96,139.60 C530.42,141.93 536.18,151.66 536.74,152.11 C536.83,151.00 535.92,146.97 536.25,144.31 C536.61,141.65 538.31,135.66 539.45,132.58 C540.43,130.00 545.16,120.48 545.10,119.91" fill="none" stroke="rgb(0, 0, 0)" stroke-width="9.00" stroke-opacity="1.00" stroke-linejoin="round"/>
<path d="M558.31,132.77 C558.54,133.19 559.11,138.67 558.84,141.99 C558.45,146.36 557.23,152.24 555.46,155.50 C554.90,156.51 552.87,159.55 552.14,160.52 C550.33,162.85 547.24,163.93 546.05,164.09" fill="none" stroke="rgb(0, 0, 0)" stroke-width="9.00" stroke-opacity="1.00" stroke-linejoin="round"/>
<path d="M560.35,134.81 C560.15,134.43 559.61,133.27 559.70,133.69 C560.50,136.99 567.22,147.42 571.08,151.27 C572.40,152.56 574.61,154.64 575.33,155.20 C576.41,156.03 577.93,156.93 578.73,157.28" fill="none" stroke="rgb(0, 0, 0)" stroke-width="9.00" stroke-opacity="1.00" stroke-linejoin="round"/>
<path d="M549.46,165.45 C552.33,166.37 557.93,170.31 561.25,172.63 C569.42,178.46 569.99,179.41 569.93,179.75 C569.39,176.04 569.39,172.16 570.68,168.36 C571.31,166.54 574.09,159.44 574.31,158.92 C574.48,158.51 574.82,157.73 575.33,156.60" fill="none" stroke="rgb(0, 0, 0)" stroke-width="9.00" stroke-opacity="1.00" stroke-linejoin="round"/>
</g>
</svg>
