<?xml version="1.0" encoding="UTF-8" standalone="no"?>
<!DOCTYPE svg PUBLIC "-//W3C//DTD SVG 1.1//EN" "http://www.w3.org/Graphics/SVG/1.1/DTD/svg11.dtd">
<svg width="192.00" height="144.00" viewBox="0.00 0.00 800.00 600.00" xmlns="http://www.w3.org/2000/svg" xmlns:xlink="http://www.w3.org/1999/xlink">
<g stroke-linecap="round" id="Layer_1_2">
<path d="M239.52,423.22 C239.52,423.22 238.81,423.22 238.81,423.22 C239.23,421.80 240.97,420.22 241.80,420.43 C243.30,420.91 244.78,423.96 243.98,425.38 C243.44,426.29 241.45,427.57 240.17,427.93 C239.27,428.15 236.24,426.48 234.31,424.06 C232.73,422.02 233.11,417.62 234.09,416.10 C234.95,414.86 237.96,413.30 240.50,413.37 C242.52,413.45 245.07,415.29 247.40,417.71 C248.66,419.00 251.74,422.30 252.11,422.65 C252.82,423.31 254.95,424.33 255.85,424.45 C257.15,424.59 258.22,423.55 259.25,421.48 C259.70,420.51 260.20,419.85 260.89,419.15 C262.75,419.94 266.45,423.45 267.52,424.09 C267.79,424.25 268.35,424.56 269.20,424.99" fill="none" stroke="rgb(0, 0, 0)" stroke-width="5.00" stroke-opacity="1.00" stroke-linejoin="round"/>
<path d="M523.91,422.87 C523.91,422.87 524.26,422.87 524.26,422.87 C522.90,422.86 521.97,423.70 521.83,424.56 C521.71,425.45 522.57,427.17 523.50,427.61 C524.55,428.06 527.10,427.16 527.92,425.96 C528.60,424.91 529.95,421.75 529.91,420.77 C529.84,419.78 528.63,417.58 528.13,417.24 C527.27,416.74 521.69,416.06 520.22,416.31 C517.93,416.73 514.43,419.14 513.91,420.65 C513.24,422.64 511.17,424.63 509.09,425.37 C507.47,425.89 504.23,424.53 503.89,423.09 C503.78,422.61 503.75,421.26 503.62,420.56 C502.95,419.94 500.31,420.31 497.68,422.71 C497.15,423.20 496.80,423.61 496.63,423.94 C496.50,424.23 496.17,425.05 495.65,426.40" fill="none" stroke="rgb(0, 0, 0)" stroke-width="5.00" stroke-opacity="1.00" stroke-linejoin="round"/>
<path d="M473.04,645.43 C472.64,645.72 472.24,646.00 471.83,646.28 C470.84,647.00 468.31,648.81 467.41,649.40 C466.51,650.00 464.41,651.26 463.65,651.71" fill="none" stroke="rgb(0, 0, 0)" stroke-width="5.00" stroke-opacity="1.00" stroke-linejoin="round"/>
<path d="M269.55,425.70 C269.55,425.70 269.55,426.05 269.55,426.05" fill="none" stroke="rgb(0, 0, 0)" stroke-width="5.00" stroke-opacity="1.00" stroke-linejoin="round"/>
<path d="M269.20,424.99 C268.95,425.07 268.80,425.13 268.73,425.17 C268.66,425.20 268.58,425.26 268.49,425.34 C284.38,424.98 306.87,426.44 319.35,427.27 C321.03,427.37 339.36,427.89 346.57,428.07 C356.23,428.24 386.29,426.80 400.03,426.39 C409.63,426.00 492.54,424.53 495.63,424.64" fill="none" stroke="rgb(0, 0, 0)" stroke-width="5.00" stroke-opacity="1.00" stroke-linejoin="round"/>
</g>
</svg>
