<?xml version="1.0" encoding="UTF-8" standalone="no"?>
<svg
   width="72.401802"
   height="5.4542093"
   viewBox="0 0 301.67418 22.725872"
   version="1.1"
   id="svg93344"
   sodipodi:docname="Lower_bracket_thin.svg"
   inkscape:version="1.1.2 (0a00cf5339, 2022-02-04, custom)"
   xmlns:inkscape="http://www.inkscape.org/namespaces/inkscape"
   xmlns:sodipodi="http://sodipodi.sourceforge.net/DTD/sodipodi-0.dtd"
   xmlns="http://www.w3.org/2000/svg"
   xmlns:svg="http://www.w3.org/2000/svg">
  <defs
     id="defs93348">
    <clipPath
       clipPathUnits="userSpaceOnUse"
       id="clipPath93854">
      <path
         id="path93856"
         style="fill:#ff0000;fill-opacity:1;fill-rule:nonzero;stroke:none;stroke-width:4.16667"
         d="m 410.2946,410.85612 -179.5573,0.008 v 19.2464 h 1.97754 1.85547 1.30209 c 0.27879,0 0.7656,-0.20666 0.99283,-0.15458 0.0757,0.0167 0.12084,0.0617 0.12209,0.15458 1.1e-4,0.008 -1.2e-4,0.0167 0,0.025 1.21602,0.025 1.971,0.15584 2.43327,0.46388 0.0921,0.008 0.18454,0.008 0.27671,0.0167 1.5361,0.13917 2.0043,0.18792 2.88085,0.30125 0.005,-0.0292 0.002,-0.195 0.008,-0.20333 0.006,-0.008 0.0179,0.19417 0.0246,0.20333 0.38117,0.0492 0.58845,0.0792 1.39974,0.18709 0.61611,0.0821 1.22019,0.20375 1.83919,0.26041 0.83592,0.28792 1.67815,-0.0375 2.51465,0.0167 0.73548,0.0471 1.47253,0.15833 2.20541,0.23583 1.4688,0.26417 2.89919,0.69475 4.36198,0.98471 0.86238,0.17084 1.74092,0.2425 2.6123,0.35 0.15167,0.0208 0.20021,0.0292 0.30113,0.0417 0.61668,-0.26792 1.30465,-0.40458 1.95312,-0.55338 0.85485,-0.15041 1.70762,-0.15291 2.56348,-0.0487 0.3355,-0.15291 0.55172,-0.19458 1.78223,-0.35791 0.70227,0.0696 1.1024,0.0871 1.3916,0.0733 0.45943,-0.0167 0.92389,3.8e-4 1.38347,0 0.26387,-0.002 0.52551,-2.9e-4 0.78938,0 0.49222,1.7e-4 0.98077,0 1.47299,0 0.0925,-0.0125 0.0627,-0.008 0.17904,-0.025 0.66417,-0.0825 1.32847,-0.1475 1.99382,-0.21958 2.2107,-0.26 4.4477,-0.0971 6.66503,-0.0417 0.36217,0.008 0.72036,0.0375 1.08236,0.025 0.514,-0.0208 1.02551,-0.0875 1.53809,-0.13 2.11419,-0.22292 4.23828,-0.27167 6.36393,-0.26042 2.12565,0.0125 4.25026,0.0792 6.37207,0.0975 2.45522,-0.004 4.91779,-0.0208 7.37305,-0.0167 0.39658,0 0.79156,-5e-4 1.18815,0 1.00246,8.3e-4 2.0016,-0.0475 3.00293,0 4.35911,0.20625 0.19312,0.0621 3.35286,0.3175 0.39942,0.0333 0.79581,0.025 1.19629,0.0417 1.11197,0.0167 2.22464,-0.0667 3.33659,-0.0733 0.28271,-0.0292 0.56275,-0.0675 0.84635,-0.0896 1.24533,-0.0967 1.97058,-0.0333 3.30404,0 0.45867,0.025 0.92412,0.0854 1.38346,0.0813 0.53857,0.15708 1.02054,-0.17959 1.53809,-0.19542 0.68288,-0.0208 1.36862,-0.0208 2.05078,0.0167 0.26425,0.0125 2.74325,0.38791 2.81575,0.39875 0.39571,0.0579 0.78951,0.1475 1.18816,0.17916 0.67298,0.155 1.35382,-0.0596 2.02637,-0.0167 1.91205,0.12458 3.74786,0.44379 5.62337,0.79754 0.13529,0.0292 0.27204,0.0508 0.40691,0.0813 0.31109,-0.0533 0.62964,-0.0683 0.94402,-0.0975 0.75612,-0.0704 0.87593,-0.0462 1.77408,-0.0571 1.12535,-0.0375 2.24416,0.0475 3.36101,0.15458 0.16075,-0.025 0.31887,-0.0675 0.48014,-0.0896 0.29558,-0.0417 0.59699,0.025 0.89518,0.008 0.0296,-0.0125 0.0599,-0.0208 0.0895,-0.0333 0.33342,0.025 0.143,0.0167 0.41504,0.0417 0.57652,-0.0125 1.148,-0.0167 1.72526,0.0167 -0.0711,-0.025 -0.16162,-0.0333 -0.21971,-0.065 -0.0782,-0.0417 0.17184,0.0208 0.26042,0.025 0.13296,0.004 0.26579,-0.004 0.39875,-0.008 0.41254,-0.008 0.93331,-0.0125 1.31836,-0.0167 1.22553,-0.0208 2.45274,-9.2e-4 3.67839,0 0.56193,-3.8e-4 0.92895,0.07 1.24511,0.10583 0.0815,-0.002 0.16259,-0.0167 0.24413,-0.0167 0.14825,5.4e-4 0.27662,0.0533 0.41504,0.0813 0.10912,0.0167 0.0811,-0.004 0.21971,0.0167 0.23875,0.0375 0.47173,0.10459 0.70801,0.15459 0,0 0.008,0 0.008,0 0.14512,0.0167 0.2935,0.0208 0.44759,-0.008 1.34293,-0.10666 2.69114,-0.0608 4.03646,-0.0487 0.95348,0.0583 1.92109,-0.0854 2.87272,-0.008 0.53316,0.0433 1.06348,0.11958 1.59505,0.17917 0.31921,0.0592 0.6374,0.14583 0.96029,0.17916 0.10104,0.008 1.44525,0.002 1.5625,0 1.03977,-0.0208 2.03388,-0.0375 3.0599,-0.19541 2.31516,-0.42663 4.6857,-0.16584 7.02311,-0.13834 1.36162,-0.008 2.72363,-0.0208 4.08528,-0.025 0.36696,-4.6e-4 0.73224,0.0208 1.09864,0 0.36554,-0.0208 0.72664,-0.0817 1.09049,-0.12208 0.23729,-0.0375 0.47707,-0.0908 0.71615,-0.11375 2.9031,-0.28208 0.38417,-0.008 2.49837,-0.11375 4.03644,-0.20167 -1.54435,0.0167 2.01823,-0.18708 0.68094,-0.0375 1.36103,-0.0492 2.04264,-0.0733 1.52586,-0.002 1.31328,-0.0125 2.92155,0.025 0.30733,0.008 0.61257,0.0492 0.9196,0.0333 1.03643,-0.0512 0.36862,-0.12834 1.25325,-0.21167 0.64576,-0.0608 1.29785,-0.0871 1.94499,-0.13 0.41429,-0.004 0.83289,0.0333 1.24512,-0.008 0.48679,-0.0487 0.87693,-0.25167 1.34277,-0.35792 1.44451,-0.33 2.84133,-0.52025 4.31315,-0.67546 1.70143,-0.23125 3.4054,-0.0208 5.11068,-0.008 0.64416,0.004 1.29268,8e-5 1.93685,0 2.04976,-0.0167 4.09442,-0.0208 6.1442,-0.0167 2.45839,0.003 4.92277,4e-5 7.38118,0 1.16046,3.3e-4 2.31446,1.3e-4 3.47492,0 0.51346,0.0588 1.13787,-0.0863 1.63575,0 0.41042,0.0713 0.81379,0.17042 1.22071,0.26042 0.48687,-0.10709 0.96983,-0.21834 1.45671,-0.32542 1.37633,-0.0433 2.74166,0.0933 4.11783,0.0733 1.03529,-0.0292 2.07329,-0.0125 3.10875,-0.008 0.82704,-8.7e-4 1.65479,-1.2e-4 2.48208,0 1.67909,-0.15875 3.35288,-0.36583 5.02929,-0.53712 1.98834,-0.20292 3.962,-0.57134 5.95705,-0.69175 1.52941,-0.0921 3.05841,-0.0971 4.58983,-0.14667 0.32333,0.0125 0.3575,0.0683 0.65104,0.0813 -0.34833,0.0867 -0.71117,0.21583 -0.71612,0.46387 -7.1e-4,0.0292 5.4e-4,0.0596 0,0.0896 0.57175,-0.0833 0.89945,-0.22709 1.76591,-0.29292 -0.002,-0.0125 0.002,-0.0208 0,-0.0333 -0.0167,-0.14167 -0.2575,-0.12334 -0.43941,-0.15459 2.50412,0.12084 4.09129,0.41209 5.20016,0.93588 0.30125,8e-5 0.60263,-4e-5 0.90334,0 0.68191,-0.0333 1.36991,0.0492 2.05079,0 1.27487,-0.0925 0.60771,-0.13458 1.83104,-0.24417 0.55429,-0.0496 1.11287,-0.0792 1.66829,-0.11375 0.34375,-0.002 0.68213,0.0167 1.02538,0 1.61795,-0.085 0.0417,-0.0671 1.29395,-0.17083 1.23709,-0.1025 2.44075,-0.0946 3.67838,-0.065 0.24125,0.008 0.48279,0.025 0.72429,0.0333 0.64942,0.0167 1.2955,0.008 1.945,0 0.55429,-0.004 0.64921,0.12 0.46388,-0.065 1.42645,-0.27 2.99854,-0.43087 4.48404,-0.21166 0.42875,0.0633 0.85129,0.15833 1.27766,0.23583 0.2475,0.0637 0.48775,0.14917 0.74055,0.18708 0.0375,0.004 0.0604,-0.055 0.0975,-0.065 0.0771,-0.0208 0.15666,-0.0208 0.23583,-0.0167 0.52492,0.0292 1.04729,0.0646 1.57062,0.11375 0.7758,0.0717 1.63363,0.22541 2.39259,0.34166 0.30083,0.0513 0.6,0.11334 0.90333,0.14667 0.14125,0.0167 0.28167,0.002 0.42317,-0.008 0.025,-0.002 0.0504,-0.0167 0.0733,-0.025 0.71779,0.11 1.43696,0.18833 2.14846,0.33375 0.36125,0.0738 0.3075,0.0908 0.45571,0.13833 0.10583,0.002 0.21166,-0.004 0.3175,0 0.47258,0.025 0.94416,0.0671 1.41604,0.10583 0.45254,-0.0125 0.84708,10e-4 1.22883,0.065 1.57554,0.21334 3.16013,0.13 4.74446,0.0896 0.405,-0.0967 0.80871,-0.19875 1.22071,-0.26042 0.35708,-0.0533 0.67696,-0.0208 1.00096,-0.008 0.0167,-0.0125 0.0292,-0.0375 0.0487,-0.0487 0.64371,-0.38292 1.75987,-0.27292 2.48208,-0.25209 0.64192,0.0754 1.28546,0.0546 1.92875,0.0417 0.81038,0.001 1.62283,0.008 2.43325,0.008 0.87067,-0.002 1.74163,-1.2e-4 2.61229,0 1.50513,-4e-5 3.0115,0 4.51663,0 0.63483,-0.0375 1.27479,0.008 1.91241,0 -0.34291,0.0971 -0.99095,0.33709 -0.74054,0.26042 0.27375,-0.0842 0.54209,-0.17792 0.81379,-0.26875 -0.0125,2.5e-4 -0.0208,8e-5 -0.0333,0 0.0167,-0.008 0.0333,-0.0208 0.0487,-0.025 0.0167,-0.003 0.025,0.002 0.0488,0 0.26583,-0.0888 0.53113,-0.17292 0.79754,-0.26042 0.33542,-0.025 0.67304,-0.0692 1.00913,-0.0733 0.2075,-0.003 0.41166,0.0333 0.6185,0.0487 0.29375,-0.0967 0.59191,-0.185 0.88704,-0.27667 1.16987,-0.10666 2.33696,0.0208 3.50746,0.0417 -0.27834,0.0954 -0.89909,0.295 -0.66729,0.24417 0.32166,-0.07 0.63579,-0.16084 0.95212,-0.25209 0.004,-6.2e-4 0.0125,7.9e-4 0.0167,0 0.14333,0.0167 0.33791,0.0567 0.26875,0 -0.0637,-0.0517 -0.15625,-0.0208 -0.24417,-0.008 0.42646,-0.12417 0.84983,-0.25167 1.28579,-0.33375 0.32792,-0.0621 0.66725,-0.025 1.001,-0.025 0.76809,0.004 1.53517,0.0667 2.30304,0.0896 0.025,-0.0208 0.0292,0.0125 0.0487,0 0.0625,0.002 0.12459,0.008 0.18709,0.008 0.0333,8e-5 0.0704,0 0.10583,0 0.89725,-0.9405 1.85746,-1.82334 2.82392,-2.69371 V 410.85936 H 430.07801 c -0.89404,0.37963 -1.99033,0.62902 -3.32846,0.63476 -0.0671,3e-4 -0.12833,-2.7e-4 -0.19541,0 -1.02413,-0.0108 -2.05275,-0.0469 -3.07617,0.0163 -1.47246,0.0417 -2.92908,0.0693 -4.40271,0 -1.07125,-0.0504 -2.14375,-0.16737 -3.21449,-0.22787 -0.497,-0.0279 -0.99192,-0.044 -1.48926,-0.0651 -1.37976,-0.085 -2.72822,-0.19241 -4.07715,-0.35808 z m 107.2184,20.37759 c -0.0208,0.008 -0.0429,0.0167 -0.065,0.025 0.13833,-0.003 0.2775,0.0125 0.415,0 0.11667,-0.008 -0.18792,-0.0375 -0.35,-0.025 z m -18.29425,0.55341 c 0.0842,-0.002 0.16792,0.008 0.2525,0.008 -0.0167,-0.0167 -0.025,-0.0292 -0.0417,-0.0333 -0.0704,-0.008 -0.28041,0.0417 -0.21166,0.025 z m -43.76629,-1.90429 c 0.185,-0.025 0.2525,0.095 0.39041,0.14667 -0.20333,-0.0167 -0.28166,-0.055 -0.51266,-0.065 0.0525,-0.0208 0.0642,-0.0729 0.12208,-0.0813 z m 0.95216,0.76496 c -0.39666,0.0208 -0.84545,0.19958 -1.3102,0.35792 0.13791,0.008 0.54791,-0.025 0.57779,-0.025 0.25541,-0.008 0.51016,0.001 0.76496,0 -0.008,-0.10625 -0.0167,-0.20917 -0.0333,-0.33375 z m 63.27313,0.37417 c -0.10542,0.003 -0.21375,-0.0125 -0.3175,0.008 -0.28333,0.0529 -1.07708,0.40375 -0.7975,0.33375 0.37625,-0.0942 0.74596,-0.22208 1.11492,-0.34167 z M 501.18,431.70558 c -0.0492,0.025 -0.13792,0.11834 -0.19542,0.15459 0.0125,2.5e-4 0.0292,-3e-4 0.0417,0 0.0637,-0.0492 0.12167,-0.10792 0.18708,-0.15459 -0.008,0.004 -0.025,-0.004 -0.0333,0 z m -167.14679,1.37529 c 0.11887,0.025 0.23729,0.0583 0.35808,0.0733 0.0246,0.003 -0.008,-0.0692 -0.0325,-0.0733 -0.10796,-0.0167 -0.29521,0.004 -0.32554,0 z" />
    </clipPath>
    <clipPath
       clipPathUnits="userSpaceOnUse"
       id="clipPath918">
      <path
         id="path920"
         style="fill:#ff0000;fill-opacity:1;fill-rule:nonzero;stroke:none;stroke-width:4.16667"
         d="m 230.7373,410.86426 v 19.62078 h 40.95867 v -18.19662 c -1.10336,-0.34105 -2.33542,-0.94676 -3.4668,-1.42416 z" />
    </clipPath>
    <clipPath
       clipPathUnits="userSpaceOnUse"
       id="clipPath928">
      <path
         id="path930"
         style="fill:#ff0000;fill-opacity:1;fill-rule:nonzero;stroke:none;stroke-width:4.16667"
         d="M 493.14779,413.72071 V 430.306 h 39.26596 v -16.58529 z" />
    </clipPath>
    <clipPath
       clipPathUnits="userSpaceOnUse"
       id="clipPath938">
      <path
         id="path940"
         style="fill:#ff0000;fill-opacity:1;fill-rule:nonzero;stroke:none;stroke-width:4.16667"
         d="m 461.60483,642.92804 c -0.0554,0.16083 -0.1175,0.31833 -0.17083,0.48017 0.22125,-0.1625 0.4515,-0.32167 0.68358,-0.48017 z" />
    </clipPath>
    <clipPath
       clipPathUnits="userSpaceOnUse"
       id="clipPath948">
      <path
         id="path950"
         style="fill:#ff0000;fill-opacity:1;fill-rule:nonzero;stroke:none;stroke-width:4.16667"
         d="m 267.04916,423.2015 v 5.34667 h 5.00488 v -5.34667 z" />
    </clipPath>
    <clipPath
       clipPathUnits="userSpaceOnUse"
       id="clipPath958">
      <path
         id="path960"
         style="fill:#ff0000;fill-opacity:1;fill-rule:nonzero;stroke:none;stroke-width:4.16667"
         d="m 265.99122,422.12729 v 8.45538 h 232.13703 v -8.45538 z" />
    </clipPath>
  </defs>
  <sodipodi:namedview
     id="namedview93346"
     pagecolor="#505050"
     bordercolor="#eeeeee"
     borderopacity="1"
     inkscape:pageshadow="0"
     inkscape:pageopacity="0"
     inkscape:pagecheckerboard="0"
     showgrid="false"
     inkscape:zoom="6.8857835"
     inkscape:cx="40.590878"
     inkscape:cy="-26.576496"
     inkscape:window-width="2560"
     inkscape:window-height="1377"
     inkscape:window-x="-8"
     inkscape:window-y="-8"
     inkscape:window-maximized="1"
     inkscape:current-layer="svg93344" />
  <g
     stroke-linecap="round"
     id="Layer_1_2"
     clip-path="url(#clipPath93854)"
     transform="translate(-230.73856,-410.86743)"
     style="stroke-width:0.58333334;stroke-miterlimit:4;stroke-dasharray:none">
    <path
       d="m 239.52,423.22 c 0,0 -0.71,0 -0.71,0 0.42,-1.42 2.16,-3 2.99,-2.79 1.5,0.48 2.98,3.53 2.18,4.95 -0.54,0.91 -2.53,2.19 -3.81,2.55 -0.9,0.22 -3.93,-1.45 -5.86,-3.87 -1.58,-2.04 -1.2,-6.44 -0.22,-7.96 0.86,-1.24 3.87,-2.8 6.41,-2.73 2.02,0.08 4.57,1.92 6.9,4.34 1.26,1.29 4.34,4.59 4.71,4.94 0.71,0.66 2.84,1.68 3.74,1.8 1.3,0.14 2.37,-0.9 3.4,-2.97 0.45,-0.97 0.95,-1.63 1.64,-2.33 1.86,0.79 5.56,4.3 6.63,4.94 0.27,0.16 0.83,0.47 1.68,0.9"
       fill="none"
       stroke="#000000"
       stroke-width="5"
       stroke-opacity="1"
       stroke-linejoin="round"
       id="path93333"
       clip-path="url(#clipPath918)"
       style="stroke-width:0.58333334;stroke-miterlimit:4;stroke-dasharray:none" />
    <path
       d="m 523.91,422.87 c 0,0 0.35,0 0.35,0 -1.36,-0.01 -2.29,0.83 -2.43,1.69 -0.12,0.89 0.74,2.61 1.67,3.05 1.05,0.45 3.6,-0.45 4.42,-1.65 0.68,-1.05 2.03,-4.21 1.99,-5.19 -0.07,-0.99 -1.28,-3.19 -1.78,-3.53 -0.86,-0.5 -6.44,-1.18 -7.91,-0.93 -2.29,0.42 -5.79,2.83 -6.31,4.34 -0.67,1.99 -2.74,3.98 -4.82,4.72 -1.62,0.52 -4.86,-0.84 -5.2,-2.28 -0.11,-0.48 -0.14,-1.83 -0.27,-2.53 -0.67,-0.62 -3.31,-0.25 -5.94,2.15 -0.53,0.49 -0.88,0.9 -1.05,1.23 -0.13,0.29 -0.46,1.11 -0.98,2.46"
       fill="none"
       stroke="#000000"
       stroke-width="5"
       stroke-opacity="1"
       stroke-linejoin="round"
       id="path93335"
       clip-path="url(#clipPath928)"
       style="stroke-width:0.58333334;stroke-miterlimit:4;stroke-dasharray:none" />
    <path
       d="m 473.04,645.43 c -0.4,0.29 -0.8,0.57 -1.21,0.85 -0.99,0.72 -3.52,2.53 -4.42,3.12 -0.9,0.6 -3,1.86 -3.76,2.31"
       fill="none"
       stroke="#000000"
       stroke-width="5"
       stroke-opacity="1"
       stroke-linejoin="round"
       id="path93337"
       clip-path="url(#clipPath938)"
       style="stroke-width:0.58333334;stroke-miterlimit:4;stroke-dasharray:none" />
    <path
       d="m 269.55,425.7 c 0,0 0,0.35 0,0.35"
       fill="none"
       stroke="#000000"
       stroke-width="5"
       stroke-opacity="1"
       stroke-linejoin="round"
       id="path93339"
       clip-path="url(#clipPath948)"
       style="stroke-width:0.58333334;stroke-miterlimit:4;stroke-dasharray:none" />
    <path
       d="m 269.2,424.99 c -0.25,0.08 -0.4,0.14 -0.47,0.18 -0.07,0.03 -0.15,0.09 -0.24,0.17 15.89,-0.36 38.38,1.1 50.86,1.93 1.68,0.1 20.01,0.62 27.22,0.8 9.66,0.17 39.72,-1.27 53.46,-1.68 9.6,-0.39 92.51,-1.86 95.6,-1.75"
       fill="none"
       stroke="#000000"
       stroke-width="5"
       stroke-opacity="1"
       stroke-linejoin="round"
       id="path93341"
       clip-path="url(#clipPath958)"
       style="stroke-width:0.58333334;stroke-miterlimit:4;stroke-dasharray:none" />
  </g>
</svg>
