<?xml version="1.0" encoding="UTF-8" standalone="no"?>
<!DOCTYPE svg PUBLIC "-//W3C//DTD SVG 1.1//EN" "http://www.w3.org/Graphics/SVG/1.1/DTD/svg11.dtd">
<svg width="192.00" height="144.00" viewBox="0.00 0.00 800.00 600.00" xmlns="http://www.w3.org/2000/svg" xmlns:xlink="http://www.w3.org/1999/xlink">
<g stroke-linecap="round" id="Layer_1_2">
<path d="M250.44,432.23 C250.44,432.23 250.01,432.37 250.01,432.37 C249.90,432.57 249.79,432.78 249.68,432.98 C249.55,433.22 249.48,433.20 249.47,432.92 C249.43,430.15 251.72,424.71 253.07,422.97 C254.43,421.28 258.13,418.96 260.02,418.21 C262.20,417.36 270.63,415.01 271.98,414.44 C275.61,412.87 280.11,408.88 280.60,406.84 C280.83,405.73 280.03,404.01 279.06,403.47 C278.02,402.96 275.38,403.07 274.26,403.81 C273.11,404.60 271.65,406.83 271.47,407.89 C271.31,409.15 271.45,410.69 271.84,411.89 C272.20,412.85 274.14,415.26 275.38,416.15 C277.65,417.76 279.95,417.26 280.26,416.96 C280.26,416.96 279.45,415.79 279.45,415.79" fill="none" stroke="rgb(0, 0, 0)" stroke-width="5.00" stroke-opacity="1.00" stroke-linejoin="round"/>
<path d="M293.95,415.31 C293.95,415.31 292.85,415.39 292.85,415.39 C292.85,415.39 292.06,415.79 292.06,415.79 C313.10,415.77 328.16,416.42 346.18,415.93 C353.41,415.82 366.46,415.57 373.65,414.56 C382.89,413.23 391.75,410.63 392.94,409.00 C393.56,408.12 393.46,406.86 392.95,405.73 C391.82,405.22 390.31,405.05 389.05,405.56 C387.88,406.05 386.15,407.40 385.85,408.03 C385.53,408.77 385.56,409.87 385.92,410.60 C386.60,411.83 392.47,414.60 397.16,415.31 C401.51,415.92 416.84,415.45 424.69,415.18 C437.76,414.83 459.68,416.25 465.35,416.27 C469.04,416.25 480.39,415.15 491.71,415.46 C499.55,415.73 519.02,416.65 520.95,416.31 C520.95,416.31 519.74,416.76 519.74,416.76" fill="none" stroke="rgb(0, 0, 0)" stroke-width="5.00" stroke-opacity="1.00" stroke-linejoin="round"/>
<path d="M562.03,431.23 C562.03,431.23 562.46,431.37 562.46,431.37 C562.57,431.57 562.68,431.78 562.78,431.98 C562.92,432.22 562.99,432.20 562.99,431.92 C563.04,429.15 560.75,423.71 559.39,421.97 C558.03,420.28 554.33,417.96 552.44,417.21 C550.27,416.36 541.84,414.01 540.49,413.44 C536.86,411.87 532.36,407.88 531.87,405.84 C531.64,404.73 532.44,403.01 533.41,402.47 C534.44,401.96 537.09,402.07 538.21,402.81 C539.35,403.60 540.82,405.83 541.00,406.89 C541.16,408.15 541.02,409.69 540.63,410.89 C540.27,411.85 538.32,414.26 537.09,415.15 C534.82,416.76 532.52,416.26 532.21,415.96 C532.21,415.96 533.02,414.79 533.02,414.79" fill="none" stroke="rgb(0, 0, 0)" stroke-width="5.00" stroke-opacity="1.00" stroke-linejoin="round"/>
</g>
</svg>
