<?xml version="1.0" encoding="UTF-8" standalone="no"?>
<svg
   width="75.385132"
   height="7.5777946"
   viewBox="0 0 314.10472 31.574144"
   version="1.1"
   id="svg9"
   sodipodi:docname="Upper_bracket_thin.svg"
   inkscape:version="1.1.2 (0a00cf5339, 2022-02-04, custom)"
   xmlns:inkscape="http://www.inkscape.org/namespaces/inkscape"
   xmlns:sodipodi="http://sodipodi.sourceforge.net/DTD/sodipodi-0.dtd"
   xmlns="http://www.w3.org/2000/svg"
   xmlns:svg="http://www.w3.org/2000/svg">
  <defs
     id="defs13" />
  <sodipodi:namedview
     id="namedview11"
     pagecolor="#505050"
     bordercolor="#eeeeee"
     borderopacity="1"
     inkscape:pageshadow="0"
     inkscape:pageopacity="0"
     inkscape:pagecheckerboard="0"
     showgrid="false"
     inkscape:zoom="5.6041667"
     inkscape:cx="34.70632"
     inkscape:cy="-26.765799"
     inkscape:window-width="2560"
     inkscape:window-height="1377"
     inkscape:window-x="-8"
     inkscape:window-y="-8"
     inkscape:window-maximized="1"
     inkscape:current-layer="svg9" />
  <g
     stroke-linecap="round"
     id="Layer_1_2"
     style="stroke-width:0.583333;stroke-miterlimit:4;stroke-dasharray:none"
     transform="translate(-249.1778,-401.86284)">
    <path
       d="m 250.44,432.23 c 0,0 -0.43,0.14 -0.43,0.14 -0.11,0.2 -0.22,0.41 -0.33,0.61 -0.13,0.24 -0.2,0.22 -0.21,-0.06 -0.04,-2.77 2.25,-8.21 3.6,-9.95 1.36,-1.69 5.06,-4.01 6.95,-4.76 2.18,-0.85 10.61,-3.2 11.96,-3.77 3.63,-1.57 8.13,-5.56 8.62,-7.6 0.23,-1.11 -0.57,-2.83 -1.54,-3.37 -1.04,-0.51 -3.68,-0.4 -4.8,0.34 -1.15,0.79 -2.61,3.02 -2.79,4.08 -0.16,1.26 -0.02,2.8 0.37,4 0.36,0.96 2.3,3.37 3.54,4.26 2.27,1.61 4.57,1.11 4.88,0.81 0,0 -0.81,-1.17 -0.81,-1.17"
       fill="none"
       stroke="#000000"
       stroke-width="5.00"
       stroke-opacity="1"
       stroke-linejoin="round"
       id="path2"
       style="stroke-width:0.583333;stroke-miterlimit:4;stroke-dasharray:none" />
    <path
       d="m 293.95,415.31 c 0,0 -1.1,0.08 -1.1,0.08 0,0 -0.79,0.4 -0.79,0.4 21.04,-0.02 36.1,0.63 54.12,0.14 7.23,-0.11 20.28,-0.36 27.47,-1.37 9.24,-1.33 18.1,-3.93 19.29,-5.56 0.62,-0.88 0.52,-2.14 0.01,-3.27 -1.13,-0.51 -2.64,-0.68 -3.9,-0.17 -1.17,0.49 -2.9,1.84 -3.2,2.47 -0.32,0.74 -0.29,1.84 0.07,2.57 0.68,1.23 6.55,4 11.24,4.71 4.35,0.61 19.68,0.14 27.53,-0.13 13.07,-0.35 34.99,1.07 40.66,1.09 3.69,-0.02 15.04,-1.12 26.36,-0.81 7.84,0.27 27.31,1.19 29.24,0.85 0,0 -1.21,0.45 -1.21,0.45"
       fill="none"
       stroke="#000000"
       stroke-width="5.00"
       stroke-opacity="1"
       stroke-linejoin="round"
       id="path4"
       style="stroke-width:0.583333;stroke-miterlimit:4;stroke-dasharray:none" />
    <path
       d="m 562.03,431.23 c 0,0 0.43,0.14 0.43,0.14 0.11,0.2 0.22,0.41 0.32,0.61 0.14,0.24 0.21,0.22 0.21,-0.06 0.05,-2.77 -2.24,-8.21 -3.6,-9.95 -1.36,-1.69 -5.06,-4.01 -6.95,-4.76 -2.17,-0.85 -10.6,-3.2 -11.95,-3.77 -3.63,-1.57 -8.13,-5.56 -8.62,-7.6 -0.23,-1.11 0.57,-2.83 1.54,-3.37 1.03,-0.51 3.68,-0.4 4.8,0.34 1.14,0.79 2.61,3.02 2.79,4.08 0.16,1.26 0.02,2.8 -0.37,4 -0.36,0.96 -2.31,3.37 -3.54,4.26 -2.27,1.61 -4.57,1.11 -4.88,0.81 0,0 0.81,-1.17 0.81,-1.17"
       fill="none"
       stroke="#000000"
       stroke-width="5.00"
       stroke-opacity="1"
       stroke-linejoin="round"
       id="path6"
       style="stroke-width:0.583333;stroke-miterlimit:4;stroke-dasharray:none" />
  </g>
</svg>
